<?xml version="1.0" encoding="UTF-8"?>
<svg version="1.1" xmlns="http://www.w3.org/2000/svg" width="200" height="200">
<path d="M0 0 C66 0 132 0 200 0 C200 66 200 132 200 200 C134 200 68 200 0 200 C0 134 0 68 0 0 Z " fill="#000000" transform="translate(0,0)"/>
<path d="M0 0 C1.32 0.33 2.64 0.66 4 1 C4 5.29 4 9.58 4 14 C4.66 14 5.32 14 6 14 C6.12375 14.969375 6.2475 15.93875 6.375 16.9375 C6.58125 17.948125 6.7875 18.95875 7 20 C7.66 20.33 8.32 20.66 9 21 C9 21.66 9 22.32 9 23 C9.70125 23.103125 10.4025 23.20625 11.125 23.3125 C14.39137647 24.09359003 17.0471852 25.42058743 20 27 C20 27.99 20 28.98 20 30 C21.3921875 30.2165625 21.3921875 30.2165625 22.8125 30.4375 C26 31 26 31 29 32 C29 32.66 29 33.32 29 34 C30.65 34.33 32.3 34.66 34 35 C34 35.66 34 36.32 34 37 C34.99 37 35.98 37 37 37 C37 56.47 37 75.94 37 96 C35.35 96.66 33.7 97.32 32 98 C32 98.66 32 99.32 32 100 C30.02 100.33 28.04 100.66 26 101 C26 101.66 26 102.32 26 103 C25.34 103 24.68 103 24 103 C24 103.66 24 104.32 24 105 C19.545 105.99 19.545 105.99 15 107 C15 107.99 15 108.98 15 110 C13.68 110 12.36 110 11 110 C11 110.66 11 111.32 11 112 C9.5459375 112.495 9.5459375 112.495 8.0625 113 C4.89278582 114.60746443 4.89278582 114.60746443 4.37890625 116.98046875 C4.14912749 118.97777644 4.06588203 120.99059814 4 123 C8.99293296 121.20174044 13.67154529 119.46319764 17.9375 116.25 C21 114 21 114 24 114 C24 113.34 24 112.68 24 112 C26.90600261 110.74335022 28.79604584 110 32 110 C32 109.01 32 108.02 32 107 C36.20327441 105.10440566 39.39942914 103.92011417 44 103 C44.66 79.57 45.32 56.14 46 32 C43.36 31.67 40.72 31.34 38 31 C37.34 30.67 36.68 30.34 36 30 C36 29.34 36 28.68 36 28 C35.34 28 34.68 28 34 28 C34 27.34 34 26.68 34 26 C31.34771188 24.92474806 28.71631546 23.90543849 26 23 C26 22.34 26 21.68 26 21 C24.02 20.67 22.04 20.34 20 20 C20 19.34 20 18.68 20 18 C18.35 17.67 16.7 17.34 15 17 C15 16.34 15 15.68 15 15 C13.68 14.67 12.36 14.34 11 14 C11 12.68 11 11.36 11 10 C10.34 10 9.68 10 9 10 C9 8.02 9 6.04 9 4 C11.9719385 5.12451727 14.33440687 6.22293791 17 8 C17 8.66 17 9.32 17 10 C18.670625 10.2165625 18.670625 10.2165625 20.375 10.4375 C24 11 24 11 26 12 C26 12.66 26 13.32 26 14 C26.804375 14.12375 27.60875 14.2475 28.4375 14.375 C29.283125 14.58125 30.12875 14.7875 31 15 C31.495 15.99 31.495 15.99 32 17 C33.485 17.495 33.485 17.495 35 18 C35 18.66 35 19.32 35 20 C36.65 20.33 38.3 20.66 40 21 C40 21.66 40 22.32 40 23 C41.98 23.33 43.96 23.66 46 24 C46 24.66 46 25.32 46 26 C47.65 26.33 49.3 26.66 51 27 C51.495 28.485 51.495 28.485 52 30 C52.66 30 53.32 30 54 30 C54 54.42 54 78.84 54 104 C53.34 104 52.68 104 52 104 C52 104.66 52 105.32 52 106 C50.02 106.33 48.04 106.66 46 107 C46 107.99 46 108.98 46 110 C36.58997722 114.40774487 36.58997722 114.40774487 32 115 C31.505 116.485 31.505 116.485 31 118 C30.34 118 29.68 118 29 118 C29 118.66 29 119.32 29 120 C27.35 120.33 25.7 120.66 24 121 C24 121.66 24 122.32 24 123 C20.535 123.495 20.535 123.495 17 124 C17 124.66 17 125.32 17 126 C15.35 126.33 13.7 126.66 12 127 C12 127.99 12 128.98 12 130 C8.04 130.99 8.04 130.99 4 132 C4 132.66 4 133.32 4 134 C2.68 134 1.36 134 0 134 C0 131.36 0 128.72 0 126 C-0.66 126 -1.32 126 -2 126 C-2.08636719 125.24074219 -2.17273438 124.48148437 -2.26171875 123.69921875 C-2.89464528 117.6377754 -2.89464528 117.6377754 -6.3125 112.9375 C-7.6428125 112.4734375 -7.6428125 112.4734375 -9 112 C-9.928125 111.608125 -10.85625 111.21625 -11.8125 110.8125 C-12.8953125 110.4103125 -12.8953125 110.4103125 -14 110 C-14 109.34 -14 108.68 -14 108 C-14.66 108 -15.32 108 -16 108 C-16 107.34 -16 106.68 -16 106 C-17.32 106 -18.64 106 -20 106 C-20.495 105.01 -20.495 105.01 -21 104 C-22.65438613 103.30341637 -24.32254318 102.63903117 -26 102 C-27.485 101.01 -27.485 101.01 -29 100 C-29 99.34 -29 98.68 -29 98 C-30.2065625 97.814375 -30.2065625 97.814375 -31.4375 97.625 C-32.7059375 97.315625 -32.7059375 97.315625 -34 97 C-35.30760893 94.38478215 -35.11997548 92.46886599 -35.11352539 89.54052734 C-35.11344986 88.39949554 -35.11337433 87.25846375 -35.11329651 86.08285522 C-35.10813522 84.84637238 -35.10297394 83.60988953 -35.09765625 82.3359375 C-35.0962413 81.07359283 -35.09482635 79.81124817 -35.09336853 78.51065063 C-35.08871078 75.15361701 -35.07972408 71.796651 -35.06866455 68.43963623 C-35.0584377 65.01445094 -35.05386818 61.58925866 -35.04882812 58.1640625 C-35.03778238 51.44268957 -35.02103194 44.72134869 -35 38 C-33.02 37.505 -33.02 37.505 -31 37 C-31 36.34 -31 35.68 -31 35 C-28.03 34.505 -28.03 34.505 -25 34 C-25 33.34 -25 32.68 -25 32 C-21.62902617 30.50178941 -19.79557881 30 -16 30 C-16 29.34 -16 28.68 -16 28 C-15.34 28 -14.68 28 -14 28 C-14 27.34 -14 26.68 -14 26 C-13.01 26 -12.02 26 -11 26 C-11 25.34 -11 24.68 -11 24 C-9.35 23.67 -7.7 23.34 -6 23 C-5.505 21.515 -5.505 21.515 -5 20 C-2.9375 19.3125 -2.9375 19.3125 -1 19 C-0.67 16.69 -0.34 14.38 0 12 C-4.69645789 13.22107905 -8.67640646 14.73993974 -13 17 C-13.99 17.33 -14.98 17.66 -16 18 C-16 18.66 -16 19.32 -16 20 C-18.31 20.33 -20.62 20.66 -23 21 C-23 21.66 -23 22.32 -23 23 C-25.90548882 25.04169485 -27.40142046 26 -31 26 C-31 26.66 -31 27.32 -31 28 C-31.66 28 -32.32 28 -33 28 C-33 28.66 -33 29.32 -33 30 C-34.98 30 -36.96 30 -39 30 C-39 30.66 -39 31.32 -39 32 C-40.32 32 -41.64 32 -43 32 C-42.67 54.77 -42.34 77.54 -42 101 C-40.02 101.66 -38.04 102.32 -36 103 C-36 103.99 -36 104.98 -36 106 C-34.35 106.66 -32.7 107.32 -31 108 C-31 108.66 -31 109.32 -31 110 C-30.2575 109.95875 -29.515 109.9175 -28.75 109.875 C-25.91241048 110.00398134 -24.41226062 110.57051222 -22 112 C-22 112.66 -22 113.32 -22 114 C-21.0925 114.0825 -20.185 114.165 -19.25 114.25 C-15.51891482 115.11101966 -14.51963508 116.22840141 -12 119 C-9.86690808 120.23512079 -9.86690808 120.23512079 -8 121 C-8 122.65 -8 124.3 -8 126 C-7.34 126 -6.68 126 -6 126 C-6 127.32 -6 128.64 -6 130 C-7.65 130 -9.3 130 -11 130 C-11 129.34 -11 128.68 -11 128 C-11.99 128 -12.98 128 -14 128 C-14 127.34 -14 126.68 -14 126 C-14.66 126 -15.32 126 -16 126 C-16 125.01 -16 124.02 -16 123 C-17.32 123 -18.64 123 -20 123 C-20 122.34 -20 121.68 -20 121 C-20.680625 120.896875 -21.36125 120.79375 -22.0625 120.6875 C-25.62915989 119.85274981 -28.66222194 118.50527246 -32 117 C-32 116.34 -32 115.68 -32 115 C-33.32 114.67 -34.64 114.34 -36 114 C-36 113.34 -36 112.68 -36 112 C-37.32 112 -38.64 112 -40 112 C-40 111.34 -40 110.68 -40 110 C-41.175625 110.0928125 -41.175625 110.0928125 -42.375 110.1875 C-43.24125 110.125625 -44.1075 110.06375 -45 110 C-45.66 109.01 -46.32 108.02 -47 107 C-48.32 106.67 -49.64 106.34 -51 106 C-51 80.92 -51 55.84 -51 30 C-50.01 30 -49.02 30 -48 30 C-48 29.01 -48 28.02 -48 27 C-46.35 26.67 -44.7 26.34 -43 26 C-43 25.34 -43 24.68 -43 24 C-39.535 23.505 -39.535 23.505 -36 23 C-36 22.34 -36 21.68 -36 21 C-29.375 17 -29.375 17 -26 17 C-26 16.34 -26 15.68 -26 15 C-22.56746383 11.56746383 -18.59557145 10.99570715 -14 10 C-14 9.01 -14 8.02 -14 7 C-12.02 6.67 -10.04 6.34 -8 6 C-8 5.34 -8 4.68 -8 4 C-6.865625 3.525625 -5.73125 3.05125 -4.5625 2.5625 C-1.24259834 1.36377917 -1.24259834 1.36377917 0 0 Z " fill="#F5F6F5" transform="translate(97,31)"/>
<path d="M0 0 C0.99 0 1.98 0 3 0 C3 0.66 3 1.32 3 2 C4.65 2 6.3 2 8 2 C8 2.66 8 3.32 8 4 C8.99 4 9.98 4 11 4 C11 4.66 11 5.32 11 6 C13.31 6.33 15.62 6.66 18 7 C18 7.66 18 8.32 18 9 C18.66 9 19.32 9 20 9 C19.47462276 14.0302076 18.89405214 19.01885239 18 24 C17.34 24 16.68 24 16 24 C15.855625 24.94875 15.71125 25.8975 15.5625 26.875 C15 30 15 30 14 32 C13.01 32 12.02 32 11 32 C11 32.99 11 33.98 11 35 C13.31 35.33 15.62 35.66 18 36 C18 36.66 18 37.32 18 38 C18.66 38 19.32 38 20 38 C19.855625 38.804375 19.71125 39.60875 19.5625 40.4375 C18.90311661 44.61359481 18.43908647 48.79598059 18 53 C17.34 53 16.68 53 16 53 C16 54.65 16 56.3 16 58 C15.34 58 14.68 58 14 58 C13.9175 58.61875 13.835 59.2375 13.75 59.875 C13 62 13 62 11.125 63.25 C9 64 9 64 6 64 C5.505 65.485 5.505 65.485 5 67 C4.34 67 3.68 67 3 67 C3 67.66 3 68.32 3 69 C2.360625 69.268125 1.72125 69.53625 1.0625 69.8125 C-1.33131686 70.88667752 -1.33131686 70.88667752 -2 74 C-6.08984305 77.32894202 -8.72611976 78.50227431 -14 78 C-14 77.34 -14 76.68 -14 76 C-15.98 75.67 -17.96 75.34 -20 75 C-20 74.34 -20 73.68 -20 73 C-20.66 73 -21.32 73 -22 73 C-22 72.34 -22 71.68 -22 71 C-24.31 70.34 -26.62 69.68 -29 69 C-28.45596601 64.32130768 -27.59364078 59.7349187 -26.625 55.125 C-26.39039062 53.99320313 -26.15578125 52.86140625 -25.9140625 51.6953125 C-25.61242187 50.80585937 -25.31078125 49.91640625 -25 49 C-23.515 48.505 -23.515 48.505 -22 48 C-22 46.35 -22 44.7 -22 43 C-24.31 42.67 -26.62 42.34 -29 42 C-28.67 37.71 -28.34 33.42 -28 29 C-27.34 29 -26.68 29 -26 29 C-25.98582031 28.40832031 -25.97164063 27.81664063 -25.95703125 27.20703125 C-25.68933129 22.77189406 -25.42102984 20.5429069 -22.625 16.9375 C-20 15 -20 15 -17 15 C-17 14.34 -17 13.68 -17 13 C-15.34997172 11.64613064 -13.6825613 10.31321858 -12 9 C-11.67 8.34 -11.34 7.68 -11 7 C-8.4375 6.375 -8.4375 6.375 -6 6 C-6 5.34 -6 4.68 -6 4 C-4.68 4 -3.36 4 -2 4 C-2 3.34 -2 2.68 -2 2 C-1.34 2 -0.68 2 0 2 C0 1.34 0 0.68 0 0 Z " fill="#0E0D0B" transform="translate(103,59)"/>
<path d="M0 0 C0.66 0 1.32 0 2 0 C2 0.66 2 1.32 2 2 C3.98 1.67 5.96 1.34 8 1 C7.34 2.32 6.68 3.64 6 5 C5.01 4.34 4.02 3.68 3 3 C3 4.98 3 6.96 3 9 C3.66 9 4.32 9 5 9 C5.103125 9.639375 5.20625 10.27875 5.3125 10.9375 C5.539375 11.618125 5.76625 12.29875 6 13 C6.99 13.33 7.98 13.66 9 14 C9 14.66 9 15.32 9 16 C10.65 16.33 12.3 16.66 14 17 C14 17.66 14 18.32 14 19 C15.98 19.33 17.96 19.66 20 20 C20 20.66 20 21.32 20 22 C20.763125 22.12375 21.52625 22.2475 22.3125 22.375 C25 23 25 23 28 25 C28 25.66 28 26.32 28 27 C28.66 27 29.32 27 30 27 C30 27.66 30 28.32 30 29 C34.95 29.99 34.95 29.99 40 31 C40.12704171 48.09199677 39.97843422 65.16307412 39.5625 82.25 C39.54285187 83.12109406 39.52320374 83.99218811 39.50296021 84.88967896 C39.44602646 87.36932658 39.38239184 89.84870363 39.31640625 92.328125 C39.29132996 93.44957161 39.29132996 93.44957161 39.26574707 94.59367371 C39.11503203 99.76993593 39.11503203 99.76993593 38 102 C34.15088872 103.81134648 30.09355887 104.87627796 26 106 C26 106.99 26 107.98 26 109 C22.04 109.99 22.04 109.99 18 111 C18 111.66 18 112.32 18 113 C16.38225061 113.9293454 14.76353289 114.85703623 13.140625 115.77734375 C11.64393401 116.63220558 10.15489444 117.50054071 8.671875 118.37890625 C7.89328125 118.83136719 7.1146875 119.28382813 6.3125 119.75 C5.58675781 120.17796875 4.86101562 120.6059375 4.11328125 121.046875 C2 122 2 122 -2 122 C-2.34707158 116.70715835 -2.34707158 116.70715835 -2 114 C-0.1875 112 -0.1875 112 2 111 C2.99 111 3.98 111 5 111 C5 110.34 5 109.68 5 109 C6.32 109 7.64 109 9 109 C9 108.01 9 107.02 9 106 C13.455 105.01 13.455 105.01 18 104 C18 103.34 18 102.68 18 102 C18.66 102 19.32 102 20 102 C20 101.34 20 100.68 20 100 C22.97 99.505 22.97 99.505 26 99 C26 98.34 26 97.68 26 97 C28.475 96.01 28.475 96.01 31 95 C31 75.53 31 56.06 31 36 C30.01 36 29.02 36 28 36 C28 35.34 28 34.68 28 34 C26.35 33.67 24.7 33.34 23 33 C23 32.34 23 31.68 23 31 C20.03 30.34 17.06 29.68 14 29 C14 28.01 14 27.02 14 26 C13.113125 25.71125 12.22625 25.4225 11.3125 25.125 C8.49617576 24.16851252 5.74916844 23.13201054 3 22 C3 21.34 3 20.68 3 20 C2.01 19.67 1.02 19.34 0 19 C0 17.02 0 15.04 0 13 C-0.66 13 -1.32 13 -2 13 C-2 9.7 -2 6.4 -2 3 C-1.01 3.33 -0.02 3.66 1 4 C0.67 2.68 0.34 1.36 0 0 Z " fill="#040404" transform="translate(103,32)"/>
<path d="M0 0 C2.9719385 1.12451727 5.33440687 2.22293791 8 4 C8 4.66 8 5.32 8 6 C9.11375 6.144375 10.2275 6.28875 11.375 6.4375 C15 7 15 7 17 8 C17 8.66 17 9.32 17 10 C17.804375 10.12375 18.60875 10.2475 19.4375 10.375 C20.283125 10.58125 21.12875 10.7875 22 11 C22.33 11.66 22.66 12.32 23 13 C23.99 13.33 24.98 13.66 26 14 C26 14.66 26 15.32 26 16 C27.65 16.33 29.3 16.66 31 17 C31 17.66 31 18.32 31 19 C32.98 19.33 34.96 19.66 37 20 C37 20.66 37 21.32 37 22 C38.65 22.33 40.3 22.66 42 23 C42.495 24.485 42.495 24.485 43 26 C43.66 26 44.32 26 45 26 C45 50.42 45 74.84 45 100 C44.34 100 43.68 100 43 100 C43 100.66 43 101.32 43 102 C40.03 102.495 40.03 102.495 37 103 C37 103.99 37 104.98 37 106 C27.58997722 110.40774487 27.58997722 110.40774487 23 111 C22.67 111.99 22.34 112.98 22 114 C21.34 114 20.68 114 20 114 C20 114.66 20 115.32 20 116 C17.525 116.495 17.525 116.495 15 117 C15 117.66 15 118.32 15 119 C11.535 119.495 11.535 119.495 8 120 C8 120.66 8 121.32 8 122 C5.525 122.495 5.525 122.495 3 123 C2.566875 122.0409375 2.566875 122.0409375 2.125 121.0625 C1.17176549 118.84793921 1.17176549 118.84793921 -1 118 C-0.22914062 117.59007812 0.54171875 117.18015625 1.3359375 116.7578125 C2.33882813 116.21898437 3.34171875 115.68015625 4.375 115.125 C5.37273437 114.59132813 6.37046875 114.05765625 7.3984375 113.5078125 C10.05348395 112.1179862 10.05348395 112.1179862 12 110 C12.99 110 13.98 110 15 110 C15 109.34 15 108.68 15 108 C17.90600261 106.74335022 19.79604584 106 23 106 C23 105.01 23 104.02 23 103 C27.20327441 101.10440566 30.39942914 99.92011417 35 99 C35.66 75.57 36.32 52.14 37 28 C34.36 27.67 31.72 27.34 29 27 C28.34 26.67 27.68 26.34 27 26 C27 25.34 27 24.68 27 24 C26.34 24 25.68 24 25 24 C25 23.34 25 22.68 25 22 C22.34771188 20.92474806 19.71631546 19.90543849 17 19 C17 18.34 17 17.68 17 17 C15.02 16.67 13.04 16.34 11 16 C11 15.34 11 14.68 11 14 C9.35 13.67 7.7 13.34 6 13 C6 12.34 6 11.68 6 11 C4.68 10.67 3.36 10.34 2 10 C2 8.68 2 7.36 2 6 C1.34 6 0.68 6 0 6 C0 4.02 0 2.04 0 0 Z " fill="#F8F8F8" transform="translate(106,35)"/>
<path d="M0 0 C0 2.31 0 4.62 0 7 C-0.804375 7.28875 -1.60875 7.5775 -2.4375 7.875 C-5.1326468 8.73262568 -5.1326468 8.73262568 -6 11 C-8.5625 11.625 -8.5625 11.625 -11 12 C-11 12.66 -11 13.32 -11 14 C-11.99 14 -12.98 14 -14 14 C-14 14.66 -14 15.32 -14 16 C-14.66 16 -15.32 16 -16 16 C-16 16.66 -16 17.32 -16 18 C-18.97 18.66 -21.94 19.32 -25 20 C-25 20.66 -25 21.32 -25 22 C-26.98 22.33 -28.96 22.66 -31 23 C-31 23.66 -31 24.32 -31 25 C-31.99 25.33 -32.98 25.66 -34 26 C-34 45.47 -34 64.94 -34 85 C-32.35 85.33 -30.7 85.66 -29 86 C-29 86.66 -29 87.32 -29 88 C-26.06279492 89.52299523 -23.0831351 90.80100302 -20 92 C-20 92.66 -20 93.32 -20 94 C-18.68 94 -17.36 94 -16 94 C-16 94.66 -16 95.32 -16 96 C-15.34 96 -14.68 96 -14 96 C-14 96.66 -14 97.32 -14 98 C-13.278125 98.103125 -12.55625 98.20625 -11.8125 98.3125 C-8.43336997 99.13850956 -5.49110919 100.50889081 -3 103 C-2.76636119 104.84891946 -2.58696365 106.70488031 -2.4375 108.5625 C-2.35371094 109.57441406 -2.26992187 110.58632812 -2.18359375 111.62890625 C-2.09271484 112.80259766 -2.09271484 112.80259766 -2 114 C-1.34 114 -0.68 114 0 114 C0 115.65 0 117.3 0 119 C-0.66 119 -1.32 119 -2 119 C-2.66 117.02 -3.32 115.04 -4 113 C-5.98 113.495 -5.98 113.495 -8 114 C-8.04125 113.236875 -8.0825 112.47375 -8.125 111.6875 C-8.7618443 108.68365462 -8.7618443 108.68365462 -12 107.375 C-13.485 106.694375 -13.485 106.694375 -15 106 C-15.33 105.01 -15.66 104.02 -16 103 C-17.98 102.67 -19.96 102.34 -22 102 C-22 101.34 -22 100.68 -22 100 C-22.61488281 99.89042969 -23.22976562 99.78085938 -23.86328125 99.66796875 C-25.07564453 99.43013672 -25.07564453 99.43013672 -26.3125 99.1875 C-27.51326172 98.96126953 -27.51326172 98.96126953 -28.73828125 98.73046875 C-31.26382279 97.91479298 -32.25548004 96.94915573 -34 95 C-34.66 94.67 -35.32 94.34 -36 94 C-36 93.01 -36 92.02 -36 91 C-36.78375 91.04125 -37.5675 91.0825 -38.375 91.125 C-41 91 -41 91 -43 89 C-43.24050903 86.13998413 -43.24050903 86.13998413 -43.22705078 82.43896484 C-43.22734283 81.76567642 -43.22763489 81.092388 -43.22793579 80.3986969 C-43.22654047 78.16931346 -43.21097016 75.94026268 -43.1953125 73.7109375 C-43.19158308 72.16680077 -43.18873577 70.62266167 -43.18673706 69.07852173 C-43.17909499 65.01124557 -43.15944168 60.94411189 -43.1373291 56.87689209 C-43.11688296 52.7278435 -43.10773799 48.57877193 -43.09765625 44.4296875 C-43.07619625 36.28639289 -43.04205349 28.14321416 -43 20 C-41.68 20 -40.36 20 -39 20 C-39 19.34 -39 18.68 -39 18 C-37.02 18 -35.04 18 -33 18 C-33 17.34 -33 16.68 -33 16 C-32.34 16 -31.68 16 -31 16 C-31 15.34 -31 14.68 -31 14 C-25.25 11 -25.25 11 -23 11 C-23 10.34 -23 9.68 -23 9 C-19.535 8.505 -19.535 8.505 -16 8 C-16 7.34 -16 6.68 -16 6 C-13.41210938 4.53515625 -13.41210938 4.53515625 -10.82421875 3.0703125 C-6.6858985 0.64226165 -4.87591759 -0.21670745 0 0 Z " fill="#141415" transform="translate(97,43)"/>
<path d="M0 0 C0.66 0.33 1.32 0.66 2 1 C1.34 2.65 0.68 4.3 0 6 C1.65 6 3.3 6 5 6 C2.63202009 8.61724095 0.10399646 10.32861729 -3 12 C-3.66 12 -4.32 12 -5 12 C-5 12.66 -5 13.32 -5 14 C-7.31 14.33 -9.62 14.66 -12 15 C-12 15.66 -12 16.32 -12 17 C-14.90548882 19.04169485 -16.40142046 20 -20 20 C-20 20.66 -20 21.32 -20 22 C-20.66 22 -21.32 22 -22 22 C-22 22.66 -22 23.32 -22 24 C-23.98 24 -25.96 24 -28 24 C-28 24.66 -28 25.32 -28 26 C-29.32 26 -30.64 26 -32 26 C-31.67 48.77 -31.34 71.54 -31 95 C-29.02 95.66 -27.04 96.32 -25 97 C-25 97.99 -25 98.98 -25 100 C-23.35 100.66 -21.7 101.32 -20 102 C-20 102.66 -20 103.32 -20 104 C-19.2575 103.95875 -18.515 103.9175 -17.75 103.875 C-14.91241048 104.00398134 -13.41226062 104.57051222 -11 106 C-11 106.66 -11 107.32 -11 108 C-10.0925 108.0825 -9.185 108.165 -8.25 108.25 C-4.51891482 109.11101966 -3.51963508 110.22840141 -1 113 C1.13309192 114.23512079 1.13309192 114.23512079 3 115 C3 116.65 3 118.3 3 120 C3.66 120 4.32 120 5 120 C5 121.32 5 122.64 5 124 C3.35 124 1.7 124 0 124 C0 123.34 0 122.68 0 122 C-0.99 122 -1.98 122 -3 122 C-3 121.34 -3 120.68 -3 120 C-3.66 120 -4.32 120 -5 120 C-5 119.01 -5 118.02 -5 117 C-6.32 117 -7.64 117 -9 117 C-9 116.34 -9 115.68 -9 115 C-9.680625 114.896875 -10.36125 114.79375 -11.0625 114.6875 C-14.62915989 113.85274981 -17.66222194 112.50527246 -21 111 C-21 110.34 -21 109.68 -21 109 C-22.32 108.67 -23.64 108.34 -25 108 C-25 107.34 -25 106.68 -25 106 C-26.32 106 -27.64 106 -29 106 C-29 105.34 -29 104.68 -29 104 C-30.175625 104.0928125 -30.175625 104.0928125 -31.375 104.1875 C-32.24125 104.125625 -33.1075 104.06375 -34 104 C-34.66 103.01 -35.32 102.02 -36 101 C-37.32 100.67 -38.64 100.34 -40 100 C-40 74.92 -40 49.84 -40 24 C-39.01 24 -38.02 24 -37 24 C-37 23.01 -37 22.02 -37 21 C-35.35 20.67 -33.7 20.34 -32 20 C-32 19.34 -32 18.68 -32 18 C-28.535 17.505 -28.535 17.505 -25 17 C-25 16.34 -25 15.68 -25 15 C-18.375 11 -18.375 11 -15 11 C-15 10.34 -15 9.68 -15 9 C-11.56746383 5.56746383 -7.59557145 4.99570715 -3 4 C-3 3.01 -3 2.02 -3 1 C-2.01 0.67 -1.02 0.34 0 0 Z " fill="#DCDCDC" transform="translate(86,37)"/>
<path d="M0 0 C3.36977373 0.60174531 5.54493494 1.58654621 8 4 C8.171875 6.69921875 8.171875 6.69921875 7.75 9.6875 C7.62109375 10.68136719 7.4921875 11.67523438 7.359375 12.69921875 C7.24078125 13.45847656 7.1221875 14.21773437 7 15 C6.195625 15.268125 5.39125 15.53625 4.5625 15.8125 C3.716875 16.204375 2.87125 16.59625 2 17 C1.67 17.99 1.34 18.98 1 20 C0.34 20 -0.32 20 -1 20 C-1 20.66 -1 21.32 -1 22 C-2.65 22.33 -4.3 22.66 -6 23 C-6 23.99 -6 24.98 -6 26 C-5.01 26 -4.02 26 -3 26 C-3 26.66 -3 27.32 -3 28 C-0.69 28.33 1.62 28.66 4 29 C4 29.99 4 30.98 4 32 C5.32 32.33 6.64 32.66 8 33 C7.67 36.3 7.34 39.6 7 43 C6.34 43 5.68 43 5 43 C5 43.66 5 44.32 5 45 C4.01 45 3.02 45 2 45 C1.67 45.99 1.34 46.98 1 48 C-0.485 48.495 -0.485 48.495 -2 49 C-2.33 49.99 -2.66 50.98 -3 52 C-4.32 52 -5.64 52 -7 52 C-7 52.66 -7 53.32 -7 54 C-8.125 55.625 -8.125 55.625 -10 57 C-13.1875 57.1875 -13.1875 57.1875 -16 57 C-16 56.34 -16 55.68 -16 55 C-16.99 54.67 -17.98 54.34 -19 54 C-18.9870671 50.24945906 -18.82810758 46.66582654 -18 43 C-13.62790698 39 -13.62790698 39 -10 39 C-10 38.34 -10 37.68 -10 37 C-9.01 36.505 -9.01 36.505 -8 36 C-7.34786708 33.97536745 -7.34786708 33.97536745 -7 32 C-8.65 32 -10.3 32 -12 32 C-12.33 31.01 -12.66 30.02 -13 29 C-16.00007271 27.29144978 -16.00007271 27.29144978 -19 26 C-18.67 22.37 -18.34 18.74 -18 15 C-17.01 14.67 -16.02 14.34 -15 14 C-15 13.34 -15 12.68 -15 12 C-13.68 12 -12.36 12 -11 12 C-11 11.34 -11 10.68 -11 10 C-10.34 10 -9.68 10 -9 10 C-9 9.34 -9 8.68 -9 8 C-8.34 8 -7.68 8 -7 8 C-6.67 7.01 -6.34 6.02 -6 5 C-5.01 5 -4.02 5 -3 5 C-3 4.34 -3 3.68 -3 3 C-2.34 3 -1.68 3 -1 3 C-0.67 2.01 -0.34 1.02 0 0 Z " fill="#ECEB39" transform="translate(104,69)"/>
<path d="M0 0 C0.66 0 1.32 0 2 0 C2.12704171 17.09199677 1.97843422 34.16307412 1.5625 51.25 C1.54285187 52.12109406 1.52320374 52.99218811 1.50296021 53.88967896 C1.44602646 56.36932658 1.38239184 58.84870363 1.31640625 61.328125 C1.29132996 62.44957161 1.29132996 62.44957161 1.26574707 63.59367371 C1.11503203 68.76993593 1.11503203 68.76993593 0 71 C-3.84911128 72.81134648 -7.90644113 73.87627796 -12 75 C-12 75.99 -12 76.98 -12 78 C-15.96 78.99 -15.96 78.99 -20 80 C-20 80.66 -20 81.32 -20 82 C-21.61774939 82.9293454 -23.23646711 83.85703623 -24.859375 84.77734375 C-26.35606599 85.63220558 -27.84510556 86.50054071 -29.328125 87.37890625 C-30.10671875 87.83136719 -30.8853125 88.28382813 -31.6875 88.75 C-32.41324219 89.17796875 -33.13898438 89.6059375 -33.88671875 90.046875 C-36 91 -36 91 -40 91 C-40.34707158 85.70715835 -40.34707158 85.70715835 -40 83 C-38.1875 81 -38.1875 81 -36 80 C-35.01 80 -34.02 80 -33 80 C-33 79.34 -33 78.68 -33 78 C-31.68 78 -30.36 78 -29 78 C-29 77.01 -29 76.02 -29 75 C-24.545 74.01 -24.545 74.01 -20 73 C-20 72.34 -20 71.68 -20 71 C-19.34 71 -18.68 71 -18 71 C-18 70.34 -18 69.68 -18 69 C-15.03 68.505 -15.03 68.505 -12 68 C-12 67.34 -12 66.68 -12 66 C-9.525 65.01 -9.525 65.01 -7 64 C-7 44.86 -7 25.72 -7 6 C-6.34 6 -5.68 6 -5 6 C-4.67 25.14 -4.34 44.28 -4 64 C-2.02 63.505 -2.02 63.505 0 63 C0 42.21 0 21.42 0 0 Z " fill="#313131" transform="translate(141,63)"/>
<path d="M0 0 C0.66 0 1.32 0 2 0 C2 24.42 2 48.84 2 74 C1.34 74 0.68 74 0 74 C0 74.66 0 75.32 0 76 C-2.97 76.495 -2.97 76.495 -6 77 C-6 77.99 -6 78.98 -6 80 C-15.41002278 84.40774487 -15.41002278 84.40774487 -20 85 C-20.33 85.99 -20.66 86.98 -21 88 C-21.66 88 -22.32 88 -23 88 C-23 88.66 -23 89.32 -23 90 C-25.475 90.495 -25.475 90.495 -28 91 C-28 91.66 -28 92.32 -28 93 C-31.465 93.495 -31.465 93.495 -35 94 C-35 94.66 -35 95.32 -35 96 C-37.475 96.495 -37.475 96.495 -40 97 C-40.433125 96.0409375 -40.433125 96.0409375 -40.875 95.0625 C-41.82823451 92.84793921 -41.82823451 92.84793921 -44 92 C-43.22914062 91.59007812 -42.45828125 91.18015625 -41.6640625 90.7578125 C-40.66117187 90.21898437 -39.65828125 89.68015625 -38.625 89.125 C-37.62726563 88.59132813 -36.62953125 88.05765625 -35.6015625 87.5078125 C-32.94651605 86.1179862 -32.94651605 86.1179862 -31 84 C-30.01 84 -29.02 84 -28 84 C-28 83.34 -28 82.68 -28 82 C-25.09399739 80.74335022 -23.20395416 80 -20 80 C-20 79.01 -20 78.02 -20 77 C-15.79672559 75.10440566 -12.60057086 73.92011417 -8 73 C-7.67 59.47 -7.34 45.94 -7 32 C-6.67 32 -6.34 32 -6 32 C-6 43.55 -6 55.1 -6 67 C-5.01 67.495 -5.01 67.495 -4 68 C-4.495 69.485 -4.495 69.485 -5 71 C-4.34 71 -3.68 71 -3 71 C-3 71.66 -3 72.32 -3 73 C-2.01 73 -1.02 73 0 73 C0 48.91 0 24.82 0 0 Z " fill="#C2C2C2" transform="translate(149,61)"/>
<path d="M0 0 C0 2.31 0 4.62 0 7 C-0.804375 7.28875 -1.60875 7.5775 -2.4375 7.875 C-5.1326468 8.73262568 -5.1326468 8.73262568 -6 11 C-8.5625 11.625 -8.5625 11.625 -11 12 C-11 12.66 -11 13.32 -11 14 C-11.99 14 -12.98 14 -14 14 C-14 14.66 -14 15.32 -14 16 C-14.66 16 -15.32 16 -16 16 C-16 16.66 -16 17.32 -16 18 C-18.97 18.66 -21.94 19.32 -25 20 C-25 20.66 -25 21.32 -25 22 C-26.98 22.33 -28.96 22.66 -31 23 C-31 23.66 -31 24.32 -31 25 C-31.99 25.33 -32.98 25.66 -34 26 C-34.33 44.81 -34.66 63.62 -35 83 C-35.33 83 -35.66 83 -36 83 C-36.33 63.2 -36.66 43.4 -37 23 C-36.01 23.33 -35.02 23.66 -34 24 C-34 23.34 -34 22.68 -34 22 C-34.66 22 -35.32 22 -36 22 C-36 21.34 -36 20.68 -36 20 C-36.66 19.67 -37.32 19.34 -38 19 C-38.33 19.99 -38.66 20.98 -39 22 C-39.99 22 -40.98 22 -42 22 C-41.89226028 30.11063792 -41.77957967 38.22118598 -41.66066074 46.33166695 C-41.60559061 50.09803594 -41.55219694 53.86441288 -41.50268555 57.63085938 C-41.4548062 61.26839491 -41.40245652 64.90584158 -41.34705925 68.54327011 C-41.32674199 69.92824962 -41.3080121 71.31325338 -41.29092598 72.69827652 C-41.26664518 74.64412359 -41.23610181 76.58988941 -41.20532227 78.53564453 C-41.18977798 79.64150909 -41.1742337 80.74737366 -41.15821838 81.88674927 C-41.00036716 84.99277546 -40.57318429 87.94566222 -40 91 C-40.99 90.34 -41.98 89.68 -43 89 C-43.36076355 86.13998413 -43.36076355 86.13998413 -43.34057617 82.43896484 C-43.34101425 81.76567642 -43.34145233 81.092388 -43.34190369 80.3986969 C-43.33981056 78.16915062 -43.3164562 75.94035269 -43.29296875 73.7109375 C-43.28737463 72.16680309 -43.28310366 70.62266336 -43.28010559 69.07852173 C-43.26864226 65.01116273 -43.23916262 60.94412429 -43.20599365 56.87689209 C-43.17532462 52.72786801 -43.16160706 48.57879222 -43.14648438 44.4296875 C-43.11429405 36.2863111 -43.06308008 28.14319541 -43 20 C-41.68 20 -40.36 20 -39 20 C-39 19.34 -39 18.68 -39 18 C-37.02 18 -35.04 18 -33 18 C-33 17.34 -33 16.68 -33 16 C-32.34 16 -31.68 16 -31 16 C-31 15.34 -31 14.68 -31 14 C-25.25 11 -25.25 11 -23 11 C-23 10.34 -23 9.68 -23 9 C-19.535 8.505 -19.535 8.505 -16 8 C-16 7.34 -16 6.68 -16 6 C-13.41210938 4.53515625 -13.41210938 4.53515625 -10.82421875 3.0703125 C-6.6858985 0.64226165 -4.87591759 -0.21670745 0 0 Z " fill="#3A3A3A" transform="translate(97,43)"/>
<path d="M0 0 C0.598125 0.226875 1.19625 0.45375 1.8125 0.6875 C1.1525 0.6875 0.4925 0.6875 -0.1875 0.6875 C-0.1875 1.3475 -0.1875 2.0075 -0.1875 2.6875 C0.4725 2.6875 1.1325 2.6875 1.8125 2.6875 C1.8125 3.3475 1.8125 4.0075 1.8125 4.6875 C0.8225 5.1825 0.8225 5.1825 -0.1875 5.6875 C-0.1875 24.8275 -0.1875 43.9675 -0.1875 63.6875 C-1.8375 63.6875 -3.4875 63.6875 -5.1875 63.6875 C-5.25698567 55.78593395 -5.31030364 47.88449537 -5.34293652 39.98269939 C-5.35859805 36.31363324 -5.37984475 32.64477599 -5.41381836 28.97583008 C-5.44639514 25.43561053 -5.46434934 21.89559201 -5.47213173 18.35523415 C-5.48037924 16.34602345 -5.50380137 14.33689372 -5.52738953 12.32780457 C-5.52761612 11.10676529 -5.52784271 9.88572601 -5.52807617 8.62768555 C-5.53473801 7.55068893 -5.54139984 6.47369232 -5.54826355 5.36405945 C-5.1875 2.6875 -5.1875 2.6875 -3.80293274 0.79670715 C-2.1875 -0.3125 -2.1875 -0.3125 0 0 Z " fill="#010101" transform="translate(61.1875,62.3125)"/>
<path d="M0 0 C2.31 0.66 4.62 1.32 7 2 C7 2.99 7 3.98 7 5 C9.475 5.99 9.475 5.99 12 7 C12 7.66 12 8.32 12 9 C12.7425 8.95875 13.485 8.9175 14.25 8.875 C17.08758952 9.00398134 18.58773938 9.57051222 21 11 C21 11.66 21 12.32 21 13 C22.36125 13.12375 22.36125 13.12375 23.75 13.25 C27.48108518 14.11101966 28.48036492 15.22840141 31 18 C33.13309192 19.23512079 33.13309192 19.23512079 35 20 C35 21.65 35 23.3 35 25 C35.66 25 36.32 25 37 25 C37 26.32 37 27.64 37 29 C35.35 29 33.7 29 32 29 C32 28.34 32 27.68 32 27 C31.01 27 30.02 27 29 27 C29 26.34 29 25.68 29 25 C28.34 25 27.68 25 27 25 C27 24.01 27 23.02 27 22 C25.68 22 24.36 22 23 22 C23 21.34 23 20.68 23 20 C22.319375 19.896875 21.63875 19.79375 20.9375 19.6875 C17.37084011 18.85274981 14.33777806 17.50527246 11 16 C11 15.34 11 14.68 11 14 C9.68 13.67 8.36 13.34 7 13 C7 12.34 7 11.68 7 11 C5.68 11 4.36 11 3 11 C3 10.34 3 9.68 3 9 C1.35 9 -0.3 9 -2 9 C-2.66 7.68 -3.32 6.36 -4 5 C-2.68 4.67 -1.36 4.34 0 4 C0 2.68 0 1.36 0 0 Z " fill="#E9E9E7" transform="translate(54,132)"/>
<path d="M0 0 C0.66 0 1.32 0 2 0 C2 0.66 2 1.32 2 2 C3.98 1.67 5.96 1.34 8 1 C7.34 2.32 6.68 3.64 6 5 C5.01 4.34 4.02 3.68 3 3 C3 4.98 3 6.96 3 9 C3.66 9 4.32 9 5 9 C5.103125 9.639375 5.20625 10.27875 5.3125 10.9375 C5.539375 11.618125 5.76625 12.29875 6 13 C6.99 13.33 7.98 13.66 9 14 C9 14.66 9 15.32 9 16 C10.65 16.33 12.3 16.66 14 17 C14 17.66 14 18.32 14 19 C15.98 19.33 17.96 19.66 20 20 C20 20.66 20 21.32 20 22 C20.804375 22.12375 21.60875 22.2475 22.4375 22.375 C23.7059375 22.684375 23.7059375 22.684375 25 23 C25.33 23.66 25.66 24.32 26 25 C24.02 25.66 22.04 26.32 20 27 C20 27.99 20 28.98 20 30 C18.02 29.67 16.04 29.34 14 29 C14 28.01 14 27.02 14 26 C13.113125 25.71125 12.22625 25.4225 11.3125 25.125 C8.49617576 24.16851252 5.74916844 23.13201054 3 22 C3 21.34 3 20.68 3 20 C2.01 19.67 1.02 19.34 0 19 C0 17.02 0 15.04 0 13 C-0.66 13 -1.32 13 -2 13 C-2 9.7 -2 6.4 -2 3 C-1.01 3.33 -0.02 3.66 1 4 C0.67 2.68 0.34 1.36 0 0 Z " fill="#131315" transform="translate(103,32)"/>
<path d="M0 0 C2.9719385 1.12451727 5.33440687 2.22293791 8 4 C8 4.66 8 5.32 8 6 C9.11375 6.144375 10.2275 6.28875 11.375 6.4375 C15 7 15 7 17 8 C17 8.66 17 9.32 17 10 C17.804375 10.12375 18.60875 10.2475 19.4375 10.375 C20.283125 10.58125 21.12875 10.7875 22 11 C22.33 11.66 22.66 12.32 23 13 C23.99 13.33 24.98 13.66 26 14 C26 14.66 26 15.32 26 16 C27.65 16.33 29.3 16.66 31 17 C29.125 20.875 29.125 20.875 28 22 C28.99 22.33 29.98 22.66 31 23 C31 23.99 31 24.98 31 26 C31.66 26 32.32 26 33 26 C32.67 26.66 32.34 27.32 32 28 C30.35 27.34 28.7 26.68 27 26 C27 25.34 27 24.68 27 24 C26.34 24 25.68 24 25 24 C25 23.34 25 22.68 25 22 C22.34771188 20.92474806 19.71631546 19.90543849 17 19 C17 18.34 17 17.68 17 17 C15.02 16.67 13.04 16.34 11 16 C11 15.34 11 14.68 11 14 C9.35 13.67 7.7 13.34 6 13 C6 12.34 6 11.68 6 11 C4.68 10.67 3.36 10.34 2 10 C2 8.68 2 7.36 2 6 C1.34 6 0.68 6 0 6 C0 4.02 0 2.04 0 0 Z " fill="#E5E5E5" transform="translate(106,35)"/>
<path d="M0 0 C1.32 0 2.64 0 4 0 C4.1953125 6.0546875 4.1953125 6.0546875 4 8 C3.34 8.66 2.68 9.32 2 10 C1.3574765 12.06874034 1.3574765 12.06874034 1 14 C0.38125 14.103125 -0.2375 14.20625 -0.875 14.3125 C-3.36526484 14.87525373 -3.36526484 14.87525373 -5 18 C-5.99 18 -6.98 18 -8 18 C-8 19.32 -8 20.64 -8 22 C-10.64 22 -13.28 22 -16 22 C-17.33877662 17.98367013 -16.49049413 15.90367509 -15 12 C-13.0625 10.75 -13.0625 10.75 -11 10 C-10.525625 9.525625 -10.05125 9.05125 -9.5625 8.5625 C-8 7 -8 7 -5.5 5.5625 C-2.90565796 4.16237099 -2.90565796 4.16237099 -1.4375 1.8125 C-0.963125 1.214375 -0.48875 0.61625 0 0 Z " fill="#F7F818" transform="translate(104,73)"/>
<path d="M0 0 C0.33 0.66 0.66 1.32 1 2 C2.97888961 2.72693904 4.97954558 3.39816251 7 4 C7 4.66 7 5.32 7 6 C7.66 6 8.32 6 9 6 C9 8.31 9 10.62 9 13 C8.34 13 7.68 13 7 13 C7 14.32 7 15.64 7 17 C5.68 17 4.36 17 3 17 C3 17.66 3 18.32 3 19 C2.01 19.33 1.02 19.66 0 20 C-0.66 20.99 -1.32 21.98 -2 23 C-2.66 23 -3.32 23 -4 23 C-4.33 23.99 -4.66 24.98 -5 26 C-6.98 26 -8.96 26 -11 26 C-10.74445946 24.53890937 -10.46999628 23.08111904 -10.1875 21.625 C-10.03667969 20.81289062 -9.88585937 20.00078125 -9.73046875 19.1640625 C-9 17 -9 17 -6 15 C-5.01 15 -4.02 15 -3 15 C-3 14.01 -3 13.02 -3 12 C-1.68 12 -0.36 12 1 12 C1 9.03 1 6.06 1 3 C0.34 3 -0.32 3 -1 3 C-0.67 2.01 -0.34 1.02 0 0 Z " fill="#F6F80E" transform="translate(99,97)"/>
<path d="M0 0 C0.99 0.33 1.98 0.66 3 1 C3 1.66 3 2.32 3 3 C4.051875 3.1546875 4.051875 3.1546875 5.125 3.3125 C8.39137647 4.09359003 11.0471852 5.42058743 14 7 C14 7.99 14 8.98 14 10 C14.928125 10.144375 15.85625 10.28875 16.8125 10.4375 C20 11 20 11 23 12 C23 12.66 23 13.32 23 14 C25.475 14.495 25.475 14.495 28 15 C28 15.66 28 16.32 28 17 C27.01 17.33 26.02 17.66 25 18 C24.34 18.33 23.68 18.66 23 19 C23 18.34 23 17.68 23 17 C22.34 17 21.68 17 21 17 C21.226875 17.845625 21.45375 18.69125 21.6875 19.5625 C22.09143364 24.00577003 20.97302401 26.05395199 19 30 C17.92689142 26.72814447 18.10736898 24.57052408 18.9375 21.25 C19.13214844 20.45078125 19.32679687 19.6515625 19.52734375 18.828125 C19.68332031 18.22484375 19.83929688 17.6215625 20 17 C19.34 17 18.68 17 18 17 C18 16.34 18 15.68 18 15 C15.69 14.67 13.38 14.34 11 14 C11 13.34 11 12.68 11 12 C10.01 12 9.02 12 8 12 C8 11.34 8 10.68 8 10 C6.35 10 4.7 10 3 10 C3 9.34 3 8.68 3 8 C2.01 8 1.02 8 0 8 C0 8.66 0 9.32 0 10 C-0.66 10 -1.32 10 -2 10 C-2 10.66 -2 11.32 -2 12 C-2.99 12 -3.98 12 -5 12 C-4.67 10.35 -4.34 8.7 -4 7 C-3.01 7 -2.02 7 -1 7 C-0.67 4.69 -0.34 2.38 0 0 Z " fill="#E0E1DE" transform="translate(103,51)"/>
<path d="M0 0 C3.37169107 0.60208769 5.53004952 1.60269512 8 4 C8.3125 6.62890625 8.3125 6.62890625 8 9.5625 C7.9175 10.53316406 7.835 11.50382812 7.75 12.50390625 C7 15 7 15 4.9375 16.33984375 C4.298125 16.55769531 3.65875 16.77554688 3 17 C3 16.01 3 15.02 3 14 C3.66 14 4.32 14 5 14 C4.979375 12.906875 4.95875 11.81375 4.9375 10.6875 C5 7 5 7 6 4 C0.35921403 5.21664011 -1.95163413 6.73280354 -6 11 C-7.33106622 11.34227417 -8.66400079 11.67751743 -10 12 C-10.69937532 13.31647119 -11.36729133 14.65022151 -12 16 C-12.99 16.33 -13.98 16.66 -15 17 C-15.33 19.64 -15.66 22.28 -16 25 C-15.38125 25.103125 -14.7625 25.20625 -14.125 25.3125 C-12 26 -12 26 -10 29 C-10 29.99 -10 30.98 -10 32 C-10.66 32 -11.32 32 -12 32 C-12.33 31.01 -12.66 30.02 -13 29 C-16.00007271 27.29144978 -16.00007271 27.29144978 -19 26 C-18.67 22.37 -18.34 18.74 -18 15 C-17.01 14.67 -16.02 14.34 -15 14 C-15 13.34 -15 12.68 -15 12 C-13.68 12 -12.36 12 -11 12 C-11 11.34 -11 10.68 -11 10 C-10.34 10 -9.68 10 -9 10 C-9 9.34 -9 8.68 -9 8 C-8.34 8 -7.68 8 -7 8 C-6.67 7.01 -6.34 6.02 -6 5 C-5.01 5 -4.02 5 -3 5 C-3 4.34 -3 3.68 -3 3 C-2.34 3 -1.68 3 -1 3 C-0.67 2.01 -0.34 1.02 0 0 Z " fill="#E0DF45" transform="translate(104,69)"/>
<path d="M0 0 C0.33 0 0.66 0 1 0 C1 1.65 1 3.3 1 5 C3.31 5.66 5.62 6.32 8 7 C8 7.66 8 8.32 8 9 C8.66 9 9.32 9 10 9 C10 9.66 10 10.32 10 11 C12.97 11.495 12.97 11.495 16 12 C16 12.66 16 13.32 16 14 C17.65 14 19.3 14 21 14 C20.67 15.32 20.34 16.64 20 18 C19.34 18 18.68 18 18 18 C18 17.34 18 16.68 18 16 C17.34 16 16.68 16 16 16 C16.33 17.32 16.66 18.64 17 20 C14.69 19.34 12.38 18.68 10 18 C10 17.34 10 16.68 10 16 C9.34 16 8.68 16 8 16 C8 15.34 8 14.68 8 14 C6.68 14 5.36 14 4 14 C3.67 13.34 3.34 12.68 3 12 C2.21625 11.690625 1.4325 11.38125 0.625 11.0625 C-1.95982105 10.01626291 -3.2046169 9.07886465 -5 7 C-4.01 6.34 -3.02 5.68 -2 5 C-0.79549696 2.44816596 -0.79549696 2.44816596 0 0 Z " fill="#D8D8D8" transform="translate(73,123)"/>
<path d="M0 0 C-0.99 0.33 -1.98 0.66 -3 1 C-3.33 1.99 -3.66 2.98 -4 4 C-4.99 4.66 -5.98 5.32 -7 6 C-6.40380045 10.86896303 -5.43023178 15.32790951 -4 20 C-5.32 20.33 -6.64 20.66 -8 21 C-8 20.34 -8 19.68 -8 19 C-10.31 18.34 -12.62 17.68 -15 17 C-14.40380045 12.13103697 -13.43023178 7.67209049 -12 3 C-9.69 3 -7.38 3 -5 3 C-5.33 2.01 -5.66 1.02 -6 0 C-3 -1 -3 -1 0 0 Z " fill="#0F0D17" transform="translate(89,111)"/>
<path d="M0 0 C0.66 0.33 1.32 0.66 2 1 C1.34 2.65 0.68 4.3 0 6 C1.65 6 3.3 6 5 6 C2.63202009 8.61724095 0.10399646 10.32861729 -3 12 C-3.66 12 -4.32 12 -5 12 C-5 12.66 -5 13.32 -5 14 C-7.31 14.33 -9.62 14.66 -12 15 C-12 15.66 -12 16.32 -12 17 C-12.99 17.33 -13.98 17.66 -15 18 C-14.125 12.125 -14.125 12.125 -13 11 C-13.66 10.34 -14.32 9.68 -15 9 C-11.35883227 5.66226291 -7.71392758 5.02135098 -3 4 C-3 3.01 -3 2.02 -3 1 C-2.01 0.67 -1.02 0.34 0 0 Z " fill="#D8D8D8" transform="translate(86,37)"/>
<path d="M0 0 C0.53625 0.2475 1.0725 0.495 1.625 0.75 C1.625 1.74 1.625 2.73 1.625 3.75 C-0.355 4.41 -2.335 5.07 -4.375 5.75 C-4.705 8.39 -5.035 11.03 -5.375 13.75 C-3.08805777 14.25379029 -3.08805777 14.25379029 -0.375 13.75 C1.3393618 11.79072937 3.00905168 9.79119788 4.625 7.75 C5.615 7.75 6.605 7.75 7.625 7.75 C7.625 7.09 7.625 6.43 7.625 5.75 C8.945 5.75 10.265 5.75 11.625 5.75 C11.295 6.74 10.965 7.73 10.625 8.75 C9.635 9.08 8.645 9.41 7.625 9.75 C7.295 10.74 6.965 11.73 6.625 12.75 C5.305 12.75 3.985 12.75 2.625 12.75 C2.625 13.41 2.625 14.07 2.625 14.75 C1.5 16.375 1.5 16.375 -0.375 17.75 C-3.5625 17.9375 -3.5625 17.9375 -6.375 17.75 C-6.375 17.09 -6.375 16.43 -6.375 15.75 C-7.365 15.42 -8.355 15.09 -9.375 14.75 C-9.362067 10.99943032 -9.19187131 7.41801567 -8.375 3.75 C-5.53081331 0.96901746 -4.03714089 -0.4249622 0 0 Z " fill="#E3E545" transform="translate(94.375,108.25)"/>
<path d="M0 0 C0.33 0 0.66 0 1 0 C1.15372667 7.65799207 1.30190825 15.31607425 1.4429636 22.97430992 C1.50863284 26.53013366 1.5762292 30.08589921 1.64819336 33.64160156 C1.73079675 37.72711947 1.80508335 41.81275143 1.87890625 45.8984375 C1.90594131 47.17866791 1.93297638 48.45889832 1.96083069 49.77792358 C1.98092697 50.95899689 2.00102325 52.14007019 2.02172852 53.35693359 C2.04171402 54.40062103 2.06169952 55.44430847 2.08229065 56.5196228 C2 59 2 59 1 61 C3.31 61 5.62 61 8 61 C8 61.99 8 62.98 8 64 C8.99 64.33 9.98 64.66 11 65 C11 67 11 67 9.875 68.6875 C8 70 8 70 4.8125 69.6875 C3.884375 69.460625 2.95625 69.23375 2 69 C0.36178731 64.68601793 -0.24554769 61.14137589 -0.22705078 56.53564453 C-0.22682419 54.64436325 -0.22682419 54.64436325 -0.22659302 52.71487427 C-0.21638217 51.35418537 -0.20595022 49.99349812 -0.1953125 48.6328125 C-0.19157824 47.22891441 -0.18873322 45.8250137 -0.18673706 44.42111206 C-0.17913304 40.74186903 -0.1595127 37.06278611 -0.1373291 33.38360596 C-0.11680071 29.62294683 -0.10772044 25.86226161 -0.09765625 22.1015625 C-0.07626343 14.73430233 -0.04216698 7.36717368 0 0 Z " fill="#181818" transform="translate(55,65)"/>
<path d="M0 0 C1.32 0.33 2.64 0.66 4 1 C4 4.63 4 8.26 4 12 C2.35 11.01 0.7 10.02 -1 9 C-1.33 9.99 -1.66 10.98 -2 12 C-6.455 12.495 -6.455 12.495 -11 13 C-11.33 12.34 -11.66 11.68 -12 11 C-10.09329942 6.63047784 -8.79901719 3.98436073 -4.3125 2.125 C-2.6728125 1.568125 -2.6728125 1.568125 -1 1 C-0.67 0.67 -0.34 0.34 0 0 Z " fill="#E7E7E7" transform="translate(97,31)"/>
<path d="M0 0 C0 2.31 0 4.62 0 7 C-0.804375 7.28875 -1.60875 7.5775 -2.4375 7.875 C-5.1326468 8.73262568 -5.1326468 8.73262568 -6 11 C-8.5625 11.625 -8.5625 11.625 -11 12 C-11 12.66 -11 13.32 -11 14 C-11.66 14 -12.32 14 -13 14 C-14.07525194 11.34771188 -15.09456151 8.71631546 -16 6 C-14.27473958 5.0234375 -12.54947917 4.046875 -10.82421875 3.0703125 C-6.6858985 0.64226165 -4.87591759 -0.21670745 0 0 Z " fill="#202020" transform="translate(97,43)"/>
<path d="M0 0 C2.31 0.66 4.62 1.32 7 2 C7 2.99 7 3.98 7 5 C9.475 5.99 9.475 5.99 12 7 C12 7.66 12 8.32 12 9 C12.99 9.33 13.98 9.66 15 10 C14.67 11.32 14.34 12.64 14 14 C12.02 14 10.04 14 8 14 C7.67 13.01 7.34 12.02 7 11 C5.68 11 4.36 11 3 11 C3 10.34 3 9.68 3 9 C1.35 9 -0.3 9 -2 9 C-2.66 7.68 -3.32 6.36 -4 5 C-2.68 4.67 -1.36 4.34 0 4 C0 2.68 0 1.36 0 0 Z " fill="#EFEFF0" transform="translate(54,132)"/>
<path d="M0 0 C1.73240237 3.46480473 2 7.16382877 2 11 C0.1875 13.6875 0.1875 13.6875 -2 16 C-2.99 16 -3.98 16 -5 16 C-5 16.99 -5 17.98 -5 19 C-3.68 19.33 -2.36 19.66 -1 20 C-0.67 21.65 -0.34 23.3 0 25 C-2.31 24.67 -4.62 24.34 -7 24 C-6.67 19.71 -6.34 15.42 -6 11 C-5.34 11 -4.68 11 -4 11 C-3.94392578 10.06027344 -3.94392578 10.06027344 -3.88671875 9.1015625 C-3.78810547 7.87566406 -3.78810547 7.87566406 -3.6875 6.625 C-3.62949219 5.81289062 -3.57148437 5.00078125 -3.51171875 4.1640625 C-3 2 -3 2 0 0 Z " fill="#0A0A11" transform="translate(81,77)"/>
<path d="M0 0 C0.33 0 0.66 0 1 0 C1 11.55 1 23.1 1 35 C1.66 35.33 2.32 35.66 3 36 C2.67 36.99 2.34 37.98 2 39 C2.66 39 3.32 39 4 39 C4.33 40.65 4.66 42.3 5 44 C3.02 44.495 3.02 44.495 1 45 C1 45.99 1 46.98 1 48 C-0.65 48 -2.3 48 -4 48 C-4.625 46.1875 -4.625 46.1875 -5 44 C-4.34 43.01 -3.68 42.02 -3 41 C-2.34 41 -1.68 41 -1 41 C-0.67 27.47 -0.34 13.94 0 0 Z " fill="#DADADA" transform="translate(142,93)"/>
<path d="M0 0 C0.91058531 3.07322544 1.08886184 5.80097361 1 9 C1.66 9.33 2.32 9.66 3 10 C3 10.66 3 11.32 3 12 C4.98 12 6.96 12 9 12 C9.33 11.01 9.66 10.02 10 9 C10.66 9 11.32 9 12 9 C12 8.34 12 7.68 12 7 C13.32 7 14.64 7 16 7 C15.67 8.32 15.34 9.64 15 11 C14.01 11 13.02 11 12 11 C12 11.66 12 12.32 12 13 C11.34 13 10.68 13 10 13 C10 13.66 10 14.32 10 15 C1.42857143 16.28571429 1.42857143 16.28571429 -2 15 C-2.94324258 10.68803391 -3.48041715 6.37934119 -4 2 C-2.68 1.34 -1.36 0.68 0 0 Z " fill="#141703" transform="translate(85,114)"/>
<path d="M0 0 C0.66 0 1.32 0 2 0 C3.85776765 3.13498292 4.20140476 5.37471432 4 9 C3.01 9.33 2.02 9.66 1 10 C1 11.32 1 12.64 1 14 C-0.375 15.75 -0.375 15.75 -2 17 C-2.66 17 -3.32 17 -4 17 C-4 19.97 -4 22.94 -4 26 C-5.98 25.67 -7.96 25.34 -10 25 C-10 24.34 -10 23.68 -10 23 C-10.99 23 -11.98 23 -13 23 C-13 22.01 -13 21.02 -13 20 C-11.35 19.67 -9.7 19.34 -8 19 C-8 18.34 -8 17.68 -8 17 C-5.75598043 15.05124617 -3.66363467 13.33181733 -1 12 C-0.53101037 9.1840151 -0.53101037 9.1840151 -0.375 5.9375 C-0.30023438 4.83277344 -0.22546875 3.72804688 -0.1484375 2.58984375 C-0.09945312 1.73519531 -0.05046875 0.88054687 0 0 Z " fill="#1F1904" transform="translate(111,72)"/>
<path d="M0 0 C1.32 0 2.64 0 4 0 C4 0.66 4 1.32 4 2 C4.99 2 5.98 2 7 2 C7 2.66 7 3.32 7 4 C9.31 4.33 11.62 4.66 14 5 C14 5.66 14 6.32 14 7 C14.66 7 15.32 7 16 7 C15.67 9.97 15.34 12.94 15 16 C14.67 16 14.34 16 14 16 C14 13.69 14 11.38 14 9 C13.34 9 12.68 9 12 9 C12 9.66 12 10.32 12 11 C9.69 10.34 7.38 9.68 5 9 C4.67 9.66 4.34 10.32 4 11 C3.4225 10.67 2.845 10.34 2.25 10 C-0.19883862 8.72924102 -0.19883862 8.72924102 -4 9 C-4 8.34 -4 7.68 -4 7 C-3.43410156 6.87882812 -2.86820312 6.75765625 -2.28515625 6.6328125 C-1.55167969 6.46523437 -0.81820312 6.29765625 -0.0625 6.125 C1.03384766 5.88136719 1.03384766 5.88136719 2.15234375 5.6328125 C4.20700294 5.17038477 4.20700294 5.17038477 5 3 C4.34 3 3.68 3 3 3 C3 2.34 3 1.68 3 1 C2.01 1.33 1.02 1.66 0 2 C0 1.34 0 0.68 0 0 Z " fill="#1E1E17" transform="translate(107,61)"/>
<path d="M0 0 C0.99 0.33 1.98 0.66 3 1 C3 1.66 3 2.32 3 3 C3.7425 3.0825 4.485 3.165 5.25 3.25 C8.51221354 4.1396946 9.80954878 5.48503749 12 8 C11.67 8.99 11.34 9.98 11 11 C8.36 10.67 5.72 10.34 3 10 C3 9.34 3 8.68 3 8 C2.01 8 1.02 8 0 8 C0 8.66 0 9.32 0 10 C-0.66 10 -1.32 10 -2 10 C-2 10.66 -2 11.32 -2 12 C-2.99 12 -3.98 12 -5 12 C-4.67 10.35 -4.34 8.7 -4 7 C-3.01 7 -2.02 7 -1 7 C-0.67 4.69 -0.34 2.38 0 0 Z " fill="#E0E2D8" transform="translate(103,51)"/>
<path d="M0 0 C-0.57562828 3.33864404 -1.59063616 4.69102632 -4 7 C-4.33 7.99 -4.66 8.98 -5 10 C-4.34 10 -3.68 10 -3 10 C-3 11.32 -3 12.64 -3 14 C-3.66 14 -4.32 14 -5 14 C-5 14.66 -5 15.32 -5 16 C-6.32 16 -7.64 16 -9 16 C-8.34 13.69 -7.68 11.38 -7 9 C-7.66 8.67 -8.32 8.34 -9 8 C-10.32 9.32 -11.64 10.64 -13 12 C-13.99 11.67 -14.98 11.34 -16 11 C-15.67 10.34 -15.34 9.68 -15 9 C-14.01 9 -13.02 9 -12 9 C-12 8.34 -12 7.68 -12 7 C-10.34997172 5.64613064 -8.6825613 4.31321858 -7 3 C-6.67 2.34 -6.34 1.68 -6 1 C-3 0 -3 0 0 0 Z " fill="#232016" transform="translate(98,65)"/>
<path d="M0 0 C0.66 0 1.32 0 2 0 C2 0.66 2 1.32 2 2 C3.98 1.67 5.96 1.34 8 1 C7.34 2.32 6.68 3.64 6 5 C5.01 4.34 4.02 3.68 3 3 C3 4.98 3 6.96 3 9 C3.66 9 4.32 9 5 9 C4.67 10.65 4.34 12.3 4 14 C3.34 13.67 2.68 13.34 2 13 C2 15.31 2 17.62 2 20 C1.34 19.67 0.68 19.34 0 19 C0 17.02 0 15.04 0 13 C-0.66 13 -1.32 13 -2 13 C-2 9.7 -2 6.4 -2 3 C-1.01 3.33 -0.02 3.66 1 4 C0.67 2.68 0.34 1.36 0 0 Z " fill="#1A1A1A" transform="translate(103,32)"/>
<path d="M0 0 C0.66 0 1.32 0 2 0 C2 1.32 2 2.64 2 4 C3.65 3.01 5.3 2.02 7 1 C7 1.66 7 2.32 7 3 C7.66 3.33 8.32 3.66 9 4 C8.67 4.99 8.34 5.98 8 7 C5.4375 8.1875 5.4375 8.1875 3 9 C3 9.66 3 10.32 3 11 C0.69 11 -1.62 11 -4 11 C-3.67 9.02 -3.34 7.04 -3 5 C-2.01 4.67 -1.02 4.34 0 4 C0 2.68 0 1.36 0 0 Z " fill="#191622" transform="translate(81,103)"/>
<path d="M0 0 C1.32 0 2.64 0 4 0 C4 0.66 4 1.32 4 2 C6.97 2.495 6.97 2.495 10 3 C10 3.66 10 4.32 10 5 C11.65 5 13.3 5 15 5 C14.67 6.32 14.34 7.64 14 9 C13.34 9 12.68 9 12 9 C12 8.34 12 7.68 12 7 C11.34 7 10.68 7 10 7 C10.33 8.32 10.66 9.64 11 11 C9.02 10.34 7.04 9.68 5 9 C5 8.01 5 7.02 5 6 C2.88214887 4.88214887 2.88214887 4.88214887 0 4 C0 2.68 0 1.36 0 0 Z " fill="#DFE1D2" transform="translate(79,132)"/>
<path d="M0 0 C4.43166995 1.39281055 7.06626776 3.39570039 10 7 C10.3125 9.8125 10.3125 9.8125 10 12 C7.69 11.67 5.38 11.34 3 11 C2.67 9.35 2.34 7.7 2 6 C1.34 6 0.68 6 0 6 C0 4.02 0 2.04 0 0 Z " fill="#D8D8D8" transform="translate(106,35)"/>
<path d="M0 0 C0.66 0.33 1.32 0.66 2 1 C2.4140625 3.50390625 2.4140625 3.50390625 2.625 6.5625 C2.69976562 7.57441406 2.77453125 8.58632812 2.8515625 9.62890625 C2.90054688 10.41136719 2.94953125 11.19382813 3 12 C3.66 12 4.32 12 5 12 C5 13.65 5 15.3 5 17 C4.34 17 3.68 17 3 17 C2.34 15.02 1.68 13.04 1 11 C-0.32 11.33 -1.64 11.66 -3 12 C-3.061875 10.8553125 -3.061875 10.8553125 -3.125 9.6875 C-3.76703777 6.68545206 -3.76703777 6.68545206 -7 5.3125 C-8.485 4.6628125 -8.485 4.6628125 -10 4 C-10.33 3.34 -10.66 2.68 -11 2 C-9.68 2 -8.36 2 -7 2 C-6.67 2.66 -6.34 3.32 -6 4 C-4.02 4 -2.04 4 0 4 C0 2.68 0 1.36 0 0 Z " fill="#434342" transform="translate(92,145)"/>
<path d="M0 0 C1.98 0.66 3.96 1.32 6 2 C6 2.99 6 3.98 6 5 C7.65 5 9.3 5 11 5 C10.67 6.65 10.34 8.3 10 10 C9.34 10 8.68 10 8 10 C8 10.66 8 11.32 8 12 C5.5 13.625 5.5 13.625 3 15 C3 13.68 3 12.36 3 11 C3.99 10.67 4.98 10.34 6 10 C5.34 9.67 4.68 9.34 4 9 C4 8.34 4 7.68 4 7 C3.34 7 2.68 7 2 7 C1.34 4.69 0.68 2.38 0 0 Z " fill="#252105" transform="translate(86,96)"/>
<path d="M0 0 C1.0209375 0.309375 1.0209375 0.309375 2.0625 0.625 C5.79238878 0.83581851 5.79238878 0.83581851 8.125 -0.0625 C9.0840625 -0.2171875 9.0840625 -0.2171875 10.0625 -0.375 C11.8125 1.0625 11.8125 1.0625 13.0625 2.625 C11.0825 3.285 9.1025 3.945 7.0625 4.625 C7.0625 5.615 7.0625 6.605 7.0625 7.625 C4.0925 7.13 4.0925 7.13 1.0625 6.625 C1.0625 5.635 1.0625 4.645 1.0625 3.625 C-0.9175 2.965 -2.8975 2.305 -4.9375 1.625 C-1.9375 -0.375 -1.9375 -0.375 0 0 Z " fill="#1F1F21" transform="translate(115.9375,54.375)"/>
<path d="M0 0 C0 0.66 0 1.32 0 2 C0.66 2 1.32 2 2 2 C2 3.65 2 5.3 2 7 C-0.375 8.0625 -0.375 8.0625 -3 9 C-3.66 8.67 -4.32 8.34 -5 8 C-5 7.34 -5 6.68 -5 6 C-5.99 6 -6.98 6 -8 6 C-8 4.68 -8 3.36 -8 2 C-4.77208445 -0.1519437 -3.71599191 -0.20086443 0 0 Z " fill="#141415" transform="translate(131,57)"/>
<path d="M0 0 C2.475 0.495 2.475 0.495 5 1 C5 1.99 5 2.98 5 4 C6.32 4.33 7.64 4.66 9 5 C8.67 8.3 8.34 11.6 8 15 C7.34 15 6.68 15 6 15 C6 15.66 6 16.32 6 17 C5.01 17 4.02 17 3 17 C3 15.68 3 14.36 3 13 C3.66 13 4.32 13 5 13 C5 10.69 5 8.38 5 6 C4.34 6 3.68 6 3 6 C0 2.53846154 0 2.53846154 0 0 Z " fill="#B7BC46" transform="translate(103,97)"/>
<path d="M0 0 C1.32 0 2.64 0 4 0 C3.125 4.75 3.125 4.75 2 7 C2.99 6.67 3.98 6.34 5 6 C5.33 6.99 5.66 7.98 6 9 C5.34 9 4.68 9 4 9 C4 9.66 4 10.32 4 11 C3.01 11.33 2.02 11.66 1 12 C0.67 12.66 0.34 13.32 0 14 C-0.66 14 -1.32 14 -2 14 C-2 13.34 -2 12.68 -2 12 C-2.66 12 -3.32 12 -4 12 C-3.57453287 9.53229066 -3.31304738 8.28800359 -1.4375 6.5625 C0.27937403 5.02256504 0.27937403 5.02256504 0.1875 2.3125 C0.125625 1.549375 0.06375 0.78625 0 0 Z " fill="#181403" transform="translate(97,63)"/>
<path d="M0 0 C-0.99 0.33 -1.98 0.66 -3 1 C-3.33 1.99 -3.66 2.98 -4 4 C-4.99 4.66 -5.98 5.32 -7 6 C-7.25030977 8.58380177 -7.25030977 8.58380177 -7 11 C-8.98 11.33 -10.96 11.66 -13 12 C-12.67 9.03 -12.34 6.06 -12 3 C-9.69 3 -7.38 3 -5 3 C-5.33 2.01 -5.66 1.02 -6 0 C-3 -1 -3 -1 0 0 Z " fill="#0B0B08" transform="translate(89,111)"/>
<path d="M0 0 C1.98 0 3.96 0 6 0 C7.0625 1.875 7.0625 1.875 8 4 C7 6 7 6 5.22265625 6.703125 C4.15337891 6.97382813 4.15337891 6.97382813 3.0625 7.25 C2.35222656 7.44078125 1.64195313 7.6315625 0.91015625 7.828125 C-0.03537109 7.91320312 -0.03537109 7.91320312 -1 8 C-1.66 7.34 -2.32 6.68 -3 6 C-2.625 3.875 -2.625 3.875 -2 2 C-1.34 2 -0.68 2 0 2 C0 1.34 0 0.68 0 0 Z " fill="#141414" transform="translate(114,139)"/>
<path d="M0 0 C0.66 0 1.32 0 2 0 C2 1.32 2 2.64 2 4 C2.66 4 3.32 4 4 4 C4.33 6.31 4.66 8.62 5 11 C4.34 11 3.68 11 3 11 C3 10.34 3 9.68 3 9 C2.01 9 1.02 9 0 9 C0 9.66 0 10.32 0 11 C0.66 11.33 1.32 11.66 2 12 C-0.31 11.67 -2.62 11.34 -5 11 C-5 10.01 -5 9.02 -5 8 C-4.01 8 -3.02 8 -2 8 C-1.34 5.36 -0.68 2.72 0 0 Z " fill="#CDCDCA" transform="translate(119,83)"/>
<path d="M0 0 C0.66 0.33 1.32 0.66 2 1 C2 1.99 2 2.98 2 4 C2.66 4 3.32 4 4 4 C4 5.32 4 6.64 4 8 C3.34 8 2.68 8 2 8 C2 9.65 2 11.3 2 13 C1.34 13 0.68 13 0 13 C-0.66 14.32 -1.32 15.64 -2 17 C-2.68707555 14.50935112 -3 12.62113708 -3 10 C-1.02 10.495 -1.02 10.495 1 11 C1 10.01 1 9.02 1 8 C0.01 8 -0.98 8 -2 8 C-2.20086443 4.28400809 -2.1519437 3.22791555 0 0 Z " fill="#080716" transform="translate(117,104)"/>
<path d="M0 0 C0.66 0 1.32 0 2 0 C1.5359375 0.99 1.5359375 0.99 1.0625 2 C-0.24960255 5.70476015 -0.60264135 9.09263991 -1 13 C-0.071875 13.1546875 -0.071875 13.1546875 0.875 13.3125 C3 14 3 14 5 17 C5 17.99 5 18.98 5 20 C4.34 20 3.68 20 3 20 C2.67 19.01 2.34 18.02 2 17 C-1.00007271 15.29144978 -1.00007271 15.29144978 -4 14 C-3.67 10.37 -3.34 6.74 -3 3 C-2.01 2.67 -1.02 2.34 0 2 C0 1.34 0 0.68 0 0 Z " fill="#C6C84B" transform="translate(89,81)"/>
<path d="M0 0 C0.99 0.66 1.98 1.32 3 2 C2.01 4.31 1.02 6.62 0 9 C-1.65 9 -3.3 9 -5 9 C-5 9.66 -5 10.32 -5 11 C-5.99 10.67 -6.98 10.34 -8 10 C-7.8125 7.625 -7.8125 7.625 -7 5 C-4.5625 3.875 -4.5625 3.875 -2 3 C-1.34 2.01 -0.68 1.02 0 0 Z " fill="#0A0510" transform="translate(89,72)"/>
<path d="M0 0 C0.66 0.33 1.32 0.66 2 1 C2.33 1.99 2.66 2.98 3 4 C3.66 4.33 4.32 4.66 5 5 C5.33 4.01 5.66 3.02 6 2 C7.65 2 9.3 2 11 2 C9.7934375 2.9590625 9.7934375 2.9590625 8.5625 3.9375 C6.7249496 5.40603502 6.7249496 5.40603502 5 7 C3.00041636 7.04080783 0.99954746 7.04254356 -1 7 C-1 6.34 -1 5.68 -1 5 C-3.97 4.505 -3.97 4.505 -7 4 C-7 3.34 -7 2.68 -7 2 C-5.824375 1.7834375 -5.824375 1.7834375 -4.625 1.5625 C-2.03578982 1.12201075 -2.03578982 1.12201075 0 0 Z " fill="#27262C" transform="translate(90,130)"/>
<path d="M0 0 C0.99 0.33 1.98 0.66 3 1 C3 2.65 3 4.3 3 6 C3.66 6 4.32 6 5 6 C5 7.32 5 8.64 5 10 C3.35 10 1.7 10 0 10 C0 9.34 0 8.68 0 8 C-0.99 8 -1.98 8 -3 8 C-3 7.34 -3 6.68 -3 6 C-3.66 6 -4.32 6 -5 6 C-5 5.34 -5 4.68 -5 4 C-3.68 4 -2.36 4 -1 4 C-0.67 2.68 -0.34 1.36 0 0 Z " fill="#CBCBCB" transform="translate(86,151)"/>
<path d="M0 0 C-0.33 1.32 -0.66 2.64 -1 4 C-2.8125 4.6875 -2.8125 4.6875 -5 5 C-6.02196992 4.02246356 -7.01979625 3.0194119 -8 2 C-10.60611077 1.27802838 -10.60611077 1.27802838 -13 1 C-13 1.66 -13 2.32 -13 3 C-13.66 3 -14.32 3 -15 3 C-15 2.01 -15 1.02 -15 0 C-9.14210361 -2.19671115 -5.9589999 -1.88178944 0 0 Z " fill="#242424" transform="translate(127,138)"/>
<path d="M0 0 C0.66 0 1.32 0 2 0 C4 3 4 3 4 7 C4.66 7 5.32 7 6 7 C6 7.66 6 8.32 6 9 C6.99 9.33 7.98 9.66 9 10 C8.01 10.33 7.02 10.66 6 11 C5.01 10.34 4.02 9.68 3 9 C-0.11785113 9.64644661 -0.11785113 9.64644661 -1 12 C-1.33 11.34 -1.66 10.68 -2 10 C-1.67 9.01 -1.34 8.02 -1 7 C-1.66 6.67 -2.32 6.34 -3 6 C-1.68 5.67 -0.36 5.34 1 5 C0.67 3.35 0.34 1.7 0 0 Z " fill="#040603" transform="translate(84,96)"/>
<path d="M0 0 C6.625 0.75 6.625 0.75 10 3 C10 5 10 5 8.875 6.6875 C7 8 7 8 3.8125 7.6875 C2.884375 7.460625 1.95625 7.23375 1 7 C0.67 4.69 0.34 2.38 0 0 Z " fill="#070707" transform="translate(56,127)"/>
<path d="M0 0 C0.33 0.66 0.66 1.32 1 2 C2.97888961 2.72693904 4.97954558 3.39816251 7 4 C7 4.66 7 5.32 7 6 C7.66 6 8.32 6 9 6 C9 8.31 9 10.62 9 13 C8.34 13 7.68 13 7 13 C6.34 11.35 5.68 9.7 5 8 C4.01 8.33 3.02 8.66 2 9 C1.67 7.02 1.34 5.04 1 3 C0.34 3 -0.32 3 -1 3 C-0.67 2.01 -0.34 1.02 0 0 Z " fill="#F5F918" transform="translate(99,97)"/>
<path d="M0 0 C0.28875 0.639375 0.5775 1.27875 0.875 1.9375 C1.82823451 4.15206079 1.82823451 4.15206079 4 5 C1.60490662 7.89932357 -0.31245243 8.50168276 -4 9 C-4.98120464 5.94736336 -4.98120464 4.05263664 -4 1 C-2.68 0.67 -1.36 0.34 0 0 Z " fill="#080808" transform="translate(81,50)"/>
<path d="M0 0 C0.33 0.66 0.66 1.32 1 2 C1.66 2 2.32 2 3 2 C4.09658936 5.28976808 3.79953138 6.71303767 3 10 C2.34 10 1.68 10 1 10 C1 9.01 1 8.02 1 7 C-1.97 6.505 -1.97 6.505 -5 6 C-5 5.01 -5 4.02 -5 3 C-4.34 3 -3.68 3 -3 3 C-3 2.34 -3 1.68 -3 1 C-2.01 0.67 -1.02 0.34 0 0 Z " fill="#191919" transform="translate(126,131)"/>
<path d="M0 0 C1.65 0 3.3 0 5 0 C5 0.66 5 1.32 5 2 C4.01 2.495 4.01 2.495 3 3 C2.6433535 5.81254136 2.55586944 8.60155293 2.44140625 11.43359375 C2.29574219 12.28050781 2.15007812 13.12742187 2 14 C1.01 14.66 0.02 15.32 -1 16 C-0.979375 15.2575 -0.95875 14.515 -0.9375 13.75 C-0.88374388 11.0951523 -0.88374388 11.0951523 -1.5625 9 C-2.27934623 5.72298868 -1.47778179 2.95556359 0 0 Z " fill="#1D1C06" transform="translate(84,81)"/>
<path d="M0 0 C0.66 0.33 1.32 0.66 2 1 C1.67 2.65 1.34 4.3 1 6 C1.99 6 2.98 6 4 6 C4 6.99 4 7.98 4 9 C2.68 9.33 1.36 9.66 0 10 C0.66 10.66 1.32 11.32 2 12 C1.67 12.99 1.34 13.98 1 15 C-0.32 15 -1.64 15 -3 15 C-4.125 10.25 -4.125 10.25 -3 8 C-2.34 8 -1.68 8 -1 8 C-0.67 5.36 -0.34 2.72 0 0 Z " fill="#040307" transform="translate(114,106)"/>
<path d="M0 0 C0.66 0 1.32 0 2 0 C1.67 2.64 1.34 5.28 1 8 C2.32 8.33 3.64 8.66 5 9 C5.33 10.65 5.66 12.3 6 14 C3.69 13.67 1.38 13.34 -1 13 C-0.67 8.71 -0.34 4.42 0 0 Z " fill="#383839" transform="translate(75,88)"/>
<path d="M0 0 C1.32 0.33 2.64 0.66 4 1 C4 1.66 4 2.32 4 3 C3.34 3 2.68 3 2 3 C1.7834375 4.423125 1.7834375 4.423125 1.5625 5.875 C1 9 1 9 0 11 C-0.66 11 -1.32 11 -2 11 C-2 10.34 -2 9.68 -2 9 C-2.99 9 -3.98 9 -5 9 C-4.1875 6.0625 -4.1875 6.0625 -3 3 C-2.01 2.67 -1.02 2.34 0 2 C0 1.34 0 0.68 0 0 Z " fill="#18171F" transform="translate(117,80)"/>
<path d="M0 0 C0.66 0 1.32 0 2 0 C2 0.66 2 1.32 2 2 C2.99 2.33 3.98 2.66 5 3 C3.35 3.33 1.7 3.66 0 4 C-0.33 4.99 -0.66 5.98 -1 7 C-1.66 7 -2.32 7 -3 7 C-3 7.66 -3 8.32 -3 9 C-3.99 9.33 -4.98 9.66 -6 10 C-6.33 8.02 -6.66 6.04 -7 4 C-4.69 3.34 -2.38 2.68 0 2 C0 1.34 0 0.68 0 0 Z " fill="#19191F" transform="translate(109,119)"/>
<path d="M0 0 C0.99 0.33 1.98 0.66 3 1 C2.01 3.31 1.02 5.62 0 8 C-0.99 8 -1.98 8 -3 8 C-3.33 8.66 -3.66 9.32 -4 10 C-4.33 9.01 -4.66 8.02 -5 7 C-5.33 6.67 -5.66 6.34 -6 6 C-5.5625 3.9375 -5.5625 3.9375 -5 2 C-3.35 2 -1.7 2 0 2 C0 1.34 0 0.68 0 0 Z " fill="#FAF607" transform="translate(98,81)"/>
<path d="M0 0 C3.37169107 0.60208769 5.53004952 1.60269512 8 4 C8.3125 6.62890625 8.3125 6.62890625 8 9.5625 C7.9175 10.53316406 7.835 11.50382812 7.75 12.50390625 C7 15 7 15 4.9375 16.33984375 C4.298125 16.55769531 3.65875 16.77554688 3 17 C3 16.01 3 15.02 3 14 C3.66 14 4.32 14 5 14 C4.979375 12.906875 4.95875 11.81375 4.9375 10.6875 C5 7 5 7 6 4 C3.69 3.34 1.38 2.68 -1 2 C-0.67 1.34 -0.34 0.68 0 0 Z " fill="#C4C54A" transform="translate(104,69)"/>
<path d="M0 0 C0.99 0.33 1.98 0.66 3 1 C3 1.99 3 2.98 3 4 C3.66 4 4.32 4 5 4 C5 4.66 5 5.32 5 6 C5.99 6 6.98 6 8 6 C8 6.99 8 7.98 8 9 C5.36 8.67 2.72 8.34 0 8 C0 7.34 0 6.68 0 6 C-0.99 5.67 -1.98 5.34 -3 5 C-2.01 4.67 -1.02 4.34 0 4 C0 2.68 0 1.36 0 0 Z " fill="#DADCD4" transform="translate(114,57)"/>
<path d="M0 0 C2.64 0 5.28 0 8 0 C7.67 0.99 7.34 1.98 7 3 C6.34 2.67 5.68 2.34 5 2 C5.33 2.99 5.66 3.98 6 5 C5.67 5.66 5.34 6.32 5 7 C2.4375 7.625 2.4375 7.625 0 8 C0 7.01 0 6.02 0 5 C0.66 5.33 1.32 5.66 2 6 C2 5.34 2 4.68 2 4 C1.34 4 0.68 4 0 4 C0 2.68 0 1.36 0 0 Z " fill="#121212" transform="translate(61,61)"/>
<path d="M0 0 C2.64 0.66 5.28 1.32 8 2 C8 3.65 8 5.3 8 7 C5.69 7 3.38 7 1 7 C0.67 4.69 0.34 2.38 0 0 Z " fill="#0B0B09" transform="translate(104,44)"/>
<path d="M0 0 C1.67542976 0.28604898 3.34385343 0.61781233 5 1 C5 1.66 5 2.32 5 3 C5.99 3.33 6.98 3.66 8 4 C5 6 5 6 3 7 C2.67 7.99 2.34 8.98 2 10 C0.68 9.67 -0.64 9.34 -2 9 C-2 7 -2 7 0 5 C0.99 4.67 1.98 4.34 3 4 C3 3.34 3 2.68 3 2 C1.68 1.67 0.36 1.34 -1 1 C-0.67 0.67 -0.34 0.34 0 0 Z " fill="#30302F" transform="translate(63,128)"/>
<path d="M0 0 C-0.33 2.97 -0.66 5.94 -1 9 C-1.33 9 -1.66 9 -2 9 C-2 6.69 -2 4.38 -2 2 C-2.66 2 -3.32 2 -4 2 C-4 2.66 -4 3.32 -4 4 C-5.98 3.34 -7.96 2.68 -10 2 C-10 1.34 -10 0.68 -10 0 C-6.7169902 -1.6415049 -3.57454967 -0.51888624 0 0 Z " fill="#2E2B30" transform="translate(123,68)"/>
<path d="M0 0 C5.75 0.875 5.75 0.875 8 2 C8 2.66 8 3.32 8 4 C7.195625 4.28875 6.39125 4.5775 5.5625 4.875 C2.8673532 5.73262568 2.8673532 5.73262568 2 8 C0.35 7.67 -1.3 7.34 -3 7 C-2 5 -2 5 0 4 C0 2.68 0 1.36 0 0 Z " fill="#C5C5C4" transform="translate(115,41)"/>
<path d="M0 0 C2.31 0.66 4.62 1.32 7 2 C7 2.66 7 3.32 7 4 C6.01 4 5.02 4 4 4 C3.67 4.99 3.34 5.98 3 7 C2.01 7 1.02 7 0 7 C0 7.66 0 8.32 0 9 C-0.66 9 -1.32 9 -2 9 C-2.66 7.68 -3.32 6.36 -4 5 C-2.68 4.67 -1.36 4.34 0 4 C0 2.68 0 1.36 0 0 Z " fill="#D5D5D5" transform="translate(54,132)"/>
<path d="M0 0 C0.99 0 1.98 0 3 0 C3 1.98 3 3.96 3 6 C2.195625 6.12375 1.39125 6.2475 0.5625 6.375 C-0.7059375 6.684375 -0.7059375 6.684375 -2 7 C-2.33 7.66 -2.66 8.32 -3 9 C-3.99 8.67 -4.98 8.34 -6 8 C-6 7.01 -6 6.02 -6 5 C-5.38125 4.9175 -4.7625 4.835 -4.125 4.75 C-1.81562433 4.18741541 -1.81562433 4.18741541 -0.75 1.9375 C-0.5025 1.298125 -0.255 0.65875 0 0 Z " fill="#030205" transform="translate(98,126)"/>
<path d="M0 0 C1.32 0 2.64 0 4 0 C3.67 0.99 3.34 1.98 3 3 C2.01 3.33 1.02 3.66 0 4 C-0.33 4.99 -0.66 5.98 -1 7 C-2.98 7.33 -4.96 7.66 -7 8 C-7 6 -7 6 -5.1875 3.875 C-3 2 -3 2 0 2 C0 1.34 0 0.68 0 0 Z " fill="#E8E84A" transform="translate(102,114)"/>
<path d="M0 0 C2.0625 0.4375 2.0625 0.4375 4 1 C4 1.66 4 2.32 4 3 C4.33 3.99 4.66 4.98 5 6 C4.67 6.66 4.34 7.32 4 8 C3.34 8 2.68 8 2 8 C2 7.34 2 6.68 2 6 C0.68 5.67 -0.64 5.34 -2 5 C-1.125 1.125 -1.125 1.125 0 0 Z " fill="#1A1A1A" transform="translate(130,43)"/>
<path d="M0 0 C0 0.66 0 1.32 0 2 C-0.99 2 -1.98 2 -3 2 C-3.28875 2.639375 -3.5775 3.27875 -3.875 3.9375 C-5 6 -5 6 -7 7 C-8.13350534 9.01669827 -8.13350534 9.01669827 -9 11 C-8.54177532 7.53058454 -8.10868317 4.32604951 -7 1 C-4 0 -4 0 0 0 Z " fill="#D9DBD2" transform="translate(86,72)"/>
<path d="M0 0 C0.99 0 1.98 0 3 0 C3 0.99 3 1.98 3 3 C3.66 3 4.32 3 5 3 C5 3.99 5 4.98 5 6 C5.66 6 6.32 6 7 6 C7 7.65 7 9.3 7 11 C6.34 11 5.68 11 5 11 C4.34 9.02 3.68 7.04 3 5 C2.01 5 1.02 5 0 5 C0 3.35 0 1.7 0 0 Z " fill="#2C2B2B" transform="translate(90,151)"/>
<path d="M0 0 C2.31 0.33 4.62 0.66 7 1 C6.67 2.32 6.34 3.64 6 5 C5.34 5 4.68 5 4 5 C4 4.34 4 3.68 4 3 C3.34 3 2.68 3 2 3 C2.33 4.32 2.66 5.64 3 7 C1.68 6.34 0.36 5.68 -1 5 C-0.34 5 0.32 5 1 5 C1 4.34 1 3.68 1 3 C0.34 3 -0.32 3 -1 3 C-0.67 2.01 -0.34 1.02 0 0 Z " fill="#D1D2D3" transform="translate(87,136)"/>
<path d="M0 0 C0.66 0 1.32 0 2 0 C2 0.66 2 1.32 2 2 C3.65 2.33 5.3 2.66 7 3 C6.01 4.485 6.01 4.485 5 6 C4.34 6 3.68 6 3 6 C2.67 6.66 2.34 7.32 2 8 C1.34 7.67 0.68 7.34 0 7 C0 4.69 0 2.38 0 0 Z " fill="#16171C" transform="translate(81,139)"/>
<path d="M0 0 C2.64 0 5.28 0 8 0 C8 1.32 8 2.64 8 4 C9.32 3.67 10.64 3.34 12 3 C12.33 4.98 12.66 6.96 13 9 C12.67 8.34 12.34 7.68 12 7 C11.34 7 10.68 7 10 7 C10 6.34 10 5.68 10 5 C8.68 5 7.36 5 6 5 C5.67 4.34 5.34 3.68 5 3 C3.35636866 2.27840576 1.68949614 1.60648579 0 1 C0 0.67 0 0.34 0 0 Z " fill="#D1D2CA" transform="translate(71,132)"/>
<path d="M0 0 C1.32 0.33 2.64 0.66 4 1 C4 2.65 4 4.3 4 6 C3.01 6.495 3.01 6.495 2 7 C1.01 8.485 1.01 8.485 0 10 C-0.66 7.69 -1.32 5.38 -2 3 C-1.01 2.67 -0.02 2.34 1 2 C0.67 1.34 0.34 0.68 0 0 Z " fill="#DADAD6" transform="translate(77,101)"/>
<path d="M0 0 C1.65 0.33 3.3 0.66 5 1 C5.33 2.32 5.66 3.64 6 5 C2.98968256 5.93423645 2.13349732 6.04449911 -1 5 C-0.67 3.35 -0.34 1.7 0 0 Z " fill="#F8F9F5" transform="translate(109,56)"/>
<path d="M0 0 C0.99 0 1.98 0 3 0 C2 4 2 4 1 8 C-0.32 7.34 -1.64 6.68 -3 6 C-2.67 4.68 -2.34 3.36 -2 2 C-1.34 2 -0.68 2 0 2 C0 1.34 0 0.68 0 0 Z " fill="#030303" transform="translate(114,139)"/>
<path d="M0 0 C1.10844919 3.32534757 0.84454356 5.62182575 0 9 C-0.66 9 -1.32 9 -2 9 C-2.66 6.69 -3.32 4.38 -4 2 C-2.68 1.34 -1.36 0.68 0 0 Z " fill="#292408" transform="translate(85,114)"/>
<path d="M0 0 C-0.5775 0.226875 -1.155 0.45375 -1.75 0.6875 C-4.55730887 2.32509684 -5.99107964 4.47264858 -8 7 C-8.99 7.33 -9.98 7.66 -11 8 C-10.34 6.68 -9.68 5.36 -9 4 C-8.34 4 -7.68 4 -7 4 C-7 2.68 -7 1.36 -7 0 C-4.3333581 -1.33332095 -2.83319697 -0.67102033 0 0 Z " fill="#EAEC44" transform="translate(108,72)"/>
<path d="M0 0 C-0.66 1.32 -1.32 2.64 -2 4 C-2.99 4 -3.98 4 -5 4 C-6.33981486 4.3062434 -7.67511887 4.63451555 -9 5 C-9 3 -9 3 -7.6875 1.4375 C-4.86835321 -0.96399542 -3.50776556 -1.16925519 0 0 Z " fill="#D3D2D5" transform="translate(115,123)"/>
<path d="M0 0 C-0.33 1.65 -0.66 3.3 -1 5 C-1.66 4.34 -2.32 3.68 -3 3 C-3.99 3.33 -4.98 3.66 -6 4 C-6 3.34 -6 2.68 -6 2 C-6.66 2 -7.32 2 -8 2 C-8 1.34 -8 0.68 -8 0 C-5.13822943 -1.43088528 -3.06624227 -0.59991697 0 0 Z " fill="#0A0A18" transform="translate(115,89)"/>
<path d="M0 0 C0.99 0 1.98 0 3 0 C3 0.66 3 1.32 3 2 C3.66 2.33 4.32 2.66 5 3 C4.34 3 3.68 3 3 3 C3.33 5.64 3.66 8.28 4 11 C3.34 10.67 2.68 10.34 2 10 C2 8.02 2 6.04 2 4 C1.34 4 0.68 4 0 4 C0 2.68 0 1.36 0 0 Z " fill="#4D4D4E" transform="translate(101,41)"/>
<path d="M0 0 C-1.125 1.5 -1.125 1.5 -3 3 C-6.1875 3.1875 -6.1875 3.1875 -9 3 C-9 2.34 -9 1.68 -9 1 C-9.66 0.67 -10.32 0.34 -11 0 C-3.375 -1.125 -3.375 -1.125 0 0 Z " fill="#CCD74A" transform="translate(97,123)"/>
<path d="M0 0 C0.66 0.33 1.32 0.66 2 1 C1.67 4.3 1.34 7.6 1 11 C0.01 11 -0.98 11 -2 11 C-2 9.68 -2 8.36 -2 7 C-1.34 7 -0.68 7 0 7 C0 4.69 0 2.38 0 0 Z " fill="#DEE443" transform="translate(108,103)"/>
<path d="M0 0 C0.66 0 1.32 0 2 0 C1.67 1.65 1.34 3.3 1 5 C0.34 5 -0.32 5 -1 5 C-0.67 6.98 -0.34 8.96 0 11 C-0.99 10.67 -1.98 10.34 -3 10 C-2.25 2.25 -2.25 2.25 0 0 Z " fill="#F2F927" transform="translate(90,84)"/>
<path d="M0 0 C0.99 0.33 1.98 0.66 3 1 C1.68 2.32 0.36 3.64 -1 5 C-1 4.34 -1 3.68 -1 3 C-1.45375 3.495 -1.9075 3.99 -2.375 4.5 C-4 6 -4 6 -6 6 C-6 5.01 -6 4.02 -6 3 C-4.02 2.67 -2.04 2.34 0 2 C0 1.34 0 0.68 0 0 Z " fill="#353535" transform="translate(149,135)"/>
<path d="M0 0 C0 0.66 0 1.32 0 2 C-1.98 2.33 -3.96 2.66 -6 3 C-6 3.66 -6 4.32 -6 5 C-6.66 4.67 -7.32 4.34 -8 4 C-7.625 2.0625 -7.625 2.0625 -7 0 C-4.3333581 -1.33332095 -2.83319697 -0.67102033 0 0 Z " fill="#E0E0E0" transform="translate(129,129)"/>
<path d="M0 0 C0.99 0.33 1.98 0.66 3 1 C2.34 1 1.68 1 1 1 C1 2.65 1 4.3 1 6 C0.34 6 -0.32 6 -1 6 C-1.66 7.32 -2.32 8.64 -3 10 C-3.68707555 7.50935112 -4 5.62113708 -4 3 C-2.02 3.495 -2.02 3.495 0 4 C0 2.68 0 1.36 0 0 Z " fill="#3F3E43" transform="translate(118,111)"/>
<path d="M0 0 C0.99 0 1.98 0 3 0 C2.67 1.98 2.34 3.96 2 6 C0.68 5.67 -0.64 5.34 -2 5 C-1.125 1.125 -1.125 1.125 0 0 Z " fill="#FAFA11" transform="translate(104,77)"/>
<path d="M0 0 C-1.44253657 3.36591866 -3.33264727 5.51047079 -6 8 C-6.99 7.67 -7.98 7.34 -9 7 C-8.67 6.34 -8.34 5.68 -8 5 C-7.01 5 -6.02 5 -5 5 C-5 4.34 -5 3.68 -5 3 C-2.46153846 0 -2.46153846 0 0 0 Z " fill="#2A2B28" transform="translate(91,69)"/>
<path d="M0 0 C2.0625 0.4375 2.0625 0.4375 4 1 C3.34 2.98 2.68 4.96 2 7 C1.34 7 0.68 7 0 7 C-0.38133299 5.0085944 -0.71325582 3.00720923 -1 1 C-0.67 0.67 -0.34 0.34 0 0 Z " fill="#040405" transform="translate(74,136)"/>
<path d="M0 0 C0.598125 0.20625 1.19625 0.4125 1.8125 0.625 C0.8225 2.11 0.8225 2.11 -0.1875 3.625 C-0.1875 2.965 -0.1875 2.305 -0.1875 1.625 C-0.8475 1.625 -1.5075 1.625 -2.1875 1.625 C-2.1875 2.945 -2.1875 4.265 -2.1875 5.625 C-3.1775 5.625 -4.1675 5.625 -5.1875 5.625 C-5.1875 4.305 -5.1875 2.985 -5.1875 1.625 C-2.1875 -0.375 -2.1875 -0.375 0 0 Z " fill="#050605" transform="translate(128.1875,57.375)"/>
<path d="M0 0 C0.99 0.33 1.98 0.66 3 1 C3 1.99 3 2.98 3 4 C3.66 4 4.32 4 5 4 C5 4.66 5 5.32 5 6 C3.35 6 1.7 6 0 6 C0 4.02 0 2.04 0 0 Z " fill="#D8D8D8" transform="translate(106,35)"/>
<path d="M0 0 C1.32 0 2.64 0 4 0 C3.75 2.375 3.75 2.375 3 5 C0.9375 6.3125 0.9375 6.3125 -1 7 C-0.67 4.69 -0.34 2.38 0 0 Z " fill="#141514" transform="translate(97,63)"/>
<path d="M0 0 C0 1.65 0 3.3 0 5 C-0.66 5 -1.32 5 -2 5 C-2.33 4.01 -2.66 3.02 -3 2 C-4.32 2 -5.64 2 -7 2 C-7 1.34 -7 0.68 -7 0 C-2.25 -1.125 -2.25 -1.125 0 0 Z " fill="#FAFAFA" transform="translate(116,42)"/>
<path d="M0 0 C-1.29299694 2.88437779 -2.65941363 4.87219421 -5 7 C-5 5.02 -5 3.04 -5 1 C-3 0 -3 0 0 0 Z " fill="#2B2B2B" transform="translate(114,157)"/>
<path d="M0 0 C1.32 0 2.64 0 4 0 C3.67 1.32 3.34 2.64 3 4 C1.02 4 -0.96 4 -3 4 C-2.67 3.34 -2.34 2.68 -2 2 C-1.34 2 -0.68 2 0 2 C0 1.34 0 0.68 0 0 Z " fill="#3A3609" transform="translate(97,121)"/>
<path d="M0 0 C2 2 2 2 2 6 C1.34 6 0.68 6 0 6 C0 5.34 0 4.68 0 4 C-0.99 4 -1.98 4 -3 4 C-3 3.01 -3 2.02 -3 1 C-2.01 0.67 -1.02 0.34 0 0 Z " fill="#574F09" transform="translate(101,91)"/>
<path d="M0 0 C0 0.99 0 1.98 0 3 C-0.99 3.495 -0.99 3.495 -2 4 C-1.01 4.33 -0.02 4.66 1 5 C0.34 5 -0.32 5 -1 5 C-1 5.66 -1 6.32 -1 7 C-1.99 6.67 -2.98 6.34 -4 6 C-3.67 4.35 -3.34 2.7 -3 1 C-2.01 0.67 -1.02 0.34 0 0 Z " fill="#020205" transform="translate(85,76)"/>
<path d="M0 0 C3.35595828 0.59927826 5.37801226 1.84622436 8 4 C7.67 5.32 7.34 6.64 7 8 C6.67 7.01 6.34 6.02 6 5 C2.49705129 3.28432339 2.49705129 3.28432339 -1 2 C-0.67 1.34 -0.34 0.68 0 0 Z " fill="#9CA044" transform="translate(104,69)"/>
<path d="M0 0 C1.98 0 3.96 0 6 0 C6 0.99 6 1.98 6 3 C6.66 3 7.32 3 8 3 C7.67 3.66 7.34 4.32 7 5 C4.525 4.01 4.525 4.01 2 3 C2 2.34 2 1.68 2 1 C1.34 0.67 0.68 0.34 0 0 Z " fill="#A9A9A9" transform="translate(131,58)"/>
<path d="M0 0 C0.66 0.33 1.32 0.66 2 1 C0.375 3 0.375 3 -2 5 C-5.25 5.25 -5.25 5.25 -8 5 C-6.68 4.67 -5.36 4.34 -4 4 C-4 3.34 -4 2.68 -4 2 C-2.125 0.9375 -2.125 0.9375 0 0 Z " fill="#363636" transform="translate(105,161)"/>
<path d="M0 0 C0 0.99 0 1.98 0 3 C-2.64 3.66 -5.28 4.32 -8 5 C-8 4.34 -8 3.68 -8 3 C-2.25 0 -2.25 0 0 0 Z " fill="#4B4B4B" transform="translate(137,143)"/>
<path d="M0 0 C2.0625 0.4375 2.0625 0.4375 4 1 C3.67 1.66 3.34 2.32 3 3 C3.66 3 4.32 3 5 3 C5 3.66 5 4.32 5 5 C3.68 5 2.36 5 1 5 C1 4.01 1 3.02 1 2 C0.34 1.67 -0.32 1.34 -1 1 C-0.67 0.67 -0.34 0.34 0 0 Z " fill="#F6F7F7" transform="translate(83,136)"/>
<path d="M0 0 C0 1.32 0 2.64 0 4 C-1.65 4 -3.3 4 -5 4 C-5 3.01 -5 2.02 -5 1 C-3 0 -3 0 0 0 Z " fill="#C5C5C5" transform="translate(134,137)"/>
<path d="M0 0 C0.66 0.33 1.32 0.66 2 1 C1.67 2.65 1.34 4.3 1 6 C-0.32 5.67 -1.64 5.34 -3 5 C-2.625 3.0625 -2.625 3.0625 -2 1 C-1.34 0.67 -0.68 0.34 0 0 Z " fill="#D3D3D3" transform="translate(104,128)"/>
<path d="M0 0 C0.33 0.66 0.66 1.32 1 2 C0.67 2.66 0.34 3.32 0 4 C-0.66 4 -1.32 4 -2 4 C-2 5.65 -2 7.3 -2 9 C-2.66 9 -3.32 9 -4 9 C-3.6875 5.625 -3.6875 5.625 -3 2 C-2.01 1.34 -1.02 0.68 0 0 Z " fill="#404243" transform="translate(81,77)"/>
<path d="M0 0 C0.33 1.32 0.66 2.64 1 4 C2.65 4 4.3 4 6 4 C5.360625 4.12375 4.72125 4.2475 4.0625 4.375 C3.0415625 4.684375 3.0415625 4.684375 2 5 C1.67 5.66 1.34 6.32 1 7 C0.01 7 -0.98 7 -2 7 C-1.34 4.69 -0.68 2.38 0 0 Z " fill="#040502" transform="translate(101,63)"/>
<path d="M0 0 C0 3.52032428 -0.70351351 4.4385343 -3 7 C-3.66 7 -4.32 7 -5 7 C-5 5.68 -5 4.36 -5 3 C-4.01 3 -3.02 3 -2 3 C-2 2.34 -2 1.68 -2 1 C-1.34 0.67 -0.68 0.34 0 0 Z " fill="#E6E6E6" transform="translate(88,54)"/>
<path d="M0 0 C1.9375 0.375 1.9375 0.375 4 1 C4.33 1.66 4.66 2.32 5 3 C3.02 3.33 1.04 3.66 -1 4 C-0.67 2.68 -0.34 1.36 0 0 Z " fill="#E9EAE6" transform="translate(78,147)"/>
<path d="M0 0 C1.98 0 3.96 0 6 0 C3.47211993 2.79872437 1.79588866 4.45773019 -2 5 C-1.34 3.35 -0.68 1.7 0 0 Z " fill="#585858" transform="translate(111,146)"/>
<path d="M0 0 C0.66 0 1.32 0 2 0 C2 1.98 2 3.96 2 6 C0.35 6.33 -1.3 6.66 -3 7 C-3 6.34 -3 5.68 -3 5 C-2.34 4.67 -1.68 4.34 -1 4 C-0.34786708 1.97536745 -0.34786708 1.97536745 0 0 Z " fill="#CAC53E" transform="translate(97,101)"/>
<path d="M0 0 C0.66 0 1.32 0 2 0 C1.34 1.65 0.68 3.3 0 5 C-0.66 5 -1.32 5 -2 5 C-2.33 5.99 -2.66 6.98 -3 8 C-3 6.35 -3 4.7 -3 3 C-2.01 2.67 -1.02 2.34 0 2 C0 1.34 0 0.68 0 0 Z " fill="#B7BD3E" transform="translate(89,81)"/>
</svg>
